<mxfile host="Electron" agent="Mozilla/5.0 (Macintosh; Intel Mac OS X 10_15_7) AppleWebKit/537.36 (KHTML, like Gecko) draw.io/24.7.5 Chrome/126.0.6478.183 Electron/31.3.0 Safari/537.36" version="24.7.5">
  <diagram name="Page-1" id="73v7qiTGzkuEvO703by5">
    <mxGraphModel dx="1026" dy="1941" grid="1" gridSize="10" guides="1" tooltips="1" connect="1" arrows="1" fold="1" page="1" pageScale="1" pageWidth="827" pageHeight="1169" math="0" shadow="0">
      <root>
        <mxCell id="0" />
        <mxCell id="1" parent="0" />
        <mxCell id="clFiod78sZzIFJFchtkz-1" value="AskNextQuestion" style="rounded=0;whiteSpace=wrap;html=1;hachureGap=4;fontFamily=Architects Daughter;fontSource=https%3A%2F%2Ffonts.googleapis.com%2Fcss%3Ffamily%3DArchitects%2BDaughter;fillColor=#dae8fc;strokeColor=#6c8ebf;sketch=1;curveFitting=1;jiggle=2;" parent="1" vertex="1">
          <mxGeometry x="230" y="155" width="120" height="60" as="geometry" />
        </mxCell>
        <mxCell id="clFiod78sZzIFJFchtkz-2" value="QuestionAsked" style="rounded=0;whiteSpace=wrap;html=1;hachureGap=4;fontFamily=Architects Daughter;fontSource=https%3A%2F%2Ffonts.googleapis.com%2Fcss%3Ffamily%3DArchitects%2BDaughter;fillColor=#ffe6cc;strokeColor=#d79b00;sketch=1;curveFitting=1;jiggle=2;" parent="1" vertex="1">
          <mxGeometry x="300" y="270" width="120" height="60" as="geometry" />
        </mxCell>
        <mxCell id="clFiod78sZzIFJFchtkz-4" value="" style="endArrow=classic;html=1;hachureGap=4;fontFamily=Architects Daughter;fontSource=https%3A%2F%2Ffonts.googleapis.com%2Fcss%3Ffamily%3DArchitects%2BDaughter;rounded=1;curved=0;flowAnimation=0;shadow=0;sketch=1;curveFitting=1;jiggle=2;" parent="1" source="clFiod78sZzIFJFchtkz-1" target="clFiod78sZzIFJFchtkz-2" edge="1">
          <mxGeometry width="50" height="50" relative="1" as="geometry">
            <mxPoint x="90" y="380" as="sourcePoint" />
            <mxPoint x="140" y="330" as="targetPoint" />
          </mxGeometry>
        </mxCell>
        <mxCell id="clFiod78sZzIFJFchtkz-5" value="currentQuestion" style="rounded=0;whiteSpace=wrap;html=1;hachureGap=4;fontFamily=Architects Daughter;fontSource=https%3A%2F%2Ffonts.googleapis.com%2Fcss%3Ffamily%3DArchitects%2BDaughter;fillColor=#d5e8d4;strokeColor=#82b366;sketch=1;curveFitting=1;jiggle=2;" parent="1" vertex="1">
          <mxGeometry x="370" y="155" width="120" height="60" as="geometry" />
        </mxCell>
        <mxCell id="clFiod78sZzIFJFchtkz-6" value="" style="endArrow=classic;html=1;hachureGap=4;fontFamily=Architects Daughter;fontSource=https%3A%2F%2Ffonts.googleapis.com%2Fcss%3Ffamily%3DArchitects%2BDaughter;sketch=1;curveFitting=1;jiggle=2;" parent="1" source="clFiod78sZzIFJFchtkz-2" target="clFiod78sZzIFJFchtkz-5" edge="1">
          <mxGeometry width="50" height="50" relative="1" as="geometry">
            <mxPoint x="220" y="440" as="sourcePoint" />
            <mxPoint x="270" y="390" as="targetPoint" />
          </mxGeometry>
        </mxCell>
        <mxCell id="clFiod78sZzIFJFchtkz-7" value="BuzzQuestion" style="rounded=0;whiteSpace=wrap;html=1;hachureGap=4;fontFamily=Architects Daughter;fontSource=https%3A%2F%2Ffonts.googleapis.com%2Fcss%3Ffamily%3DArchitects%2BDaughter;fillColor=#dae8fc;strokeColor=#6c8ebf;sketch=1;curveFitting=1;jiggle=2;shadow=0;glass=0;" parent="1" vertex="1">
          <mxGeometry x="510" y="155" width="120" height="60" as="geometry" />
        </mxCell>
        <mxCell id="clFiod78sZzIFJFchtkz-8" value="" style="verticalLabelPosition=bottom;verticalAlign=top;html=1;shadow=0;dashed=0;strokeWidth=1;shape=mxgraph.android.phone2;strokeColor=#030303;sketch=1;hachureGap=4;jiggle=2;curveFitting=1;fontFamily=Architects Daughter;fontSource=https%3A%2F%2Ffonts.googleapis.com%2Fcss%3Ffamily%3DArchitects%2BDaughter;" parent="1" vertex="1">
          <mxGeometry x="460" y="-60" width="60" height="120" as="geometry" />
        </mxCell>
        <mxCell id="clFiod78sZzIFJFchtkz-9" value="" style="verticalLabelPosition=bottom;verticalAlign=top;html=1;shadow=0;dashed=0;strokeWidth=1;shape=mxgraph.android.phone2;strokeColor=#000000;sketch=1;hachureGap=4;jiggle=2;curveFitting=1;fontFamily=Architects Daughter;fontSource=https%3A%2F%2Ffonts.googleapis.com%2Fcss%3Ffamily%3DArchitects%2BDaughter;" parent="1" vertex="1">
          <mxGeometry x="260" y="-60" width="60" height="120" as="geometry" />
        </mxCell>
        <mxCell id="clFiod78sZzIFJFchtkz-10" value="" style="endArrow=classic;html=1;rounded=0;sketch=1;hachureGap=4;jiggle=2;curveFitting=1;fontFamily=Architects Daughter;fontSource=https%3A%2F%2Ffonts.googleapis.com%2Fcss%3Ffamily%3DArchitects%2BDaughter;" parent="1" source="clFiod78sZzIFJFchtkz-5" target="clFiod78sZzIFJFchtkz-8" edge="1">
          <mxGeometry width="50" height="50" relative="1" as="geometry">
            <mxPoint x="380" y="360" as="sourcePoint" />
            <mxPoint x="430" y="310" as="targetPoint" />
          </mxGeometry>
        </mxCell>
        <mxCell id="clFiod78sZzIFJFchtkz-11" value="" style="endArrow=classic;html=1;rounded=0;sketch=1;hachureGap=4;jiggle=2;curveFitting=1;fontFamily=Architects Daughter;fontSource=https%3A%2F%2Ffonts.googleapis.com%2Fcss%3Ffamily%3DArchitects%2BDaughter;" parent="1" source="clFiod78sZzIFJFchtkz-8" target="clFiod78sZzIFJFchtkz-7" edge="1">
          <mxGeometry width="50" height="50" relative="1" as="geometry">
            <mxPoint x="409" y="120" as="sourcePoint" />
            <mxPoint x="450" y="57" as="targetPoint" />
          </mxGeometry>
        </mxCell>
        <mxCell id="clFiod78sZzIFJFchtkz-12" value="" style="endArrow=classic;html=1;rounded=0;sketch=1;hachureGap=4;jiggle=2;curveFitting=1;fontFamily=Architects Daughter;fontSource=https%3A%2F%2Ffonts.googleapis.com%2Fcss%3Ffamily%3DArchitects%2BDaughter;" parent="1" source="clFiod78sZzIFJFchtkz-9" target="clFiod78sZzIFJFchtkz-1" edge="1">
          <mxGeometry width="50" height="50" relative="1" as="geometry">
            <mxPoint x="270" y="10" as="sourcePoint" />
            <mxPoint x="319" y="78" as="targetPoint" />
          </mxGeometry>
        </mxCell>
        <mxCell id="clFiod78sZzIFJFchtkz-13" value="QuestionBuzzed" style="rounded=0;whiteSpace=wrap;html=1;hachureGap=4;fontFamily=Architects Daughter;fontSource=https%3A%2F%2Ffonts.googleapis.com%2Fcss%3Ffamily%3DArchitects%2BDaughter;fillColor=#ffe6cc;strokeColor=#d79b00;sketch=1;curveFitting=1;jiggle=2;" parent="1" vertex="1">
          <mxGeometry x="580" y="270" width="120" height="60" as="geometry" />
        </mxCell>
        <mxCell id="clFiod78sZzIFJFchtkz-14" value="" style="endArrow=classic;html=1;rounded=0;sketch=1;hachureGap=4;jiggle=2;curveFitting=1;fontFamily=Architects Daughter;fontSource=https%3A%2F%2Ffonts.googleapis.com%2Fcss%3Ffamily%3DArchitects%2BDaughter;" parent="1" source="clFiod78sZzIFJFchtkz-7" target="clFiod78sZzIFJFchtkz-13" edge="1">
          <mxGeometry width="50" height="50" relative="1" as="geometry">
            <mxPoint x="510" y="52" as="sourcePoint" />
            <mxPoint x="559" y="120" as="targetPoint" />
          </mxGeometry>
        </mxCell>
        <mxCell id="clFiod78sZzIFJFchtkz-15" value="Players which hit the buzzer" style="rounded=0;whiteSpace=wrap;html=1;hachureGap=4;fontFamily=Architects Daughter;fontSource=https%3A%2F%2Ffonts.googleapis.com%2Fcss%3Ffamily%3DArchitects%2BDaughter;fillColor=#d5e8d4;strokeColor=#82b366;sketch=1;curveFitting=1;jiggle=2;" parent="1" vertex="1">
          <mxGeometry x="670" y="155" width="120" height="60" as="geometry" />
        </mxCell>
        <mxCell id="clFiod78sZzIFJFchtkz-16" value="" style="endArrow=classic;html=1;rounded=0;sketch=1;hachureGap=4;jiggle=2;curveFitting=1;fontFamily=Architects Daughter;fontSource=https%3A%2F%2Ffonts.googleapis.com%2Fcss%3Ffamily%3DArchitects%2BDaughter;" parent="1" source="clFiod78sZzIFJFchtkz-13" target="clFiod78sZzIFJFchtkz-15" edge="1">
          <mxGeometry width="50" height="50" relative="1" as="geometry">
            <mxPoint x="593" y="180" as="sourcePoint" />
            <mxPoint x="637" y="280" as="targetPoint" />
          </mxGeometry>
        </mxCell>
        <mxCell id="clFiod78sZzIFJFchtkz-17" value="" style="shape=image;verticalLabelPosition=bottom;labelBackgroundColor=default;verticalAlign=top;aspect=fixed;imageAspect=0;image=data:image/png,iVBORw0KGgoAAAANSUhEUgAAAMUAAADBCAYAAAB/qXTmAAAKp2lDQ1BJQ0MgUHJvZmlsZQAASImVlwdQU+kWgP9700MCgQACUkJvgnQCSAmEErp0sBGSAKGEGAjNjiyuwIqiIoKKoqsiCq4FkLUiioVFQCnWBVkElHWxICoq7wJDcPfNe2/euXPm/+bc85/yz/1nzgWATGELhUkwBYBkQZooyNOVFhEZRcMNAxyAAAGQgTabkypkBAb6AkTm1r/Lh27EF5H7JtOx/v39fxVZLi+VAwAUiHAMN5WTjPA5REc5QlEaAKiDiF07I004zc0Iy4uQAhHunea4WR6d5pgZRoMZn5AgN4TlAcCT2GxRHAAkGmKnpXPikDgkF4TNBFy+AGEhwk7JySlchE8jbID4IDbSdHx6zHdx4v4WM0YSk82Ok/BsLzOCZ/JThUnsrP/zOP63JCeJ53LoIUqKF3kFTfeMnFlvYoqPhAUx/gFzzOfO+M9wvNgrdI45qW5Rc8xlM30ke5P8fec4lu/BksRJY4XMMS/VPXiORSlBklyxIjfGHLNF83nFiaESezyPJYmfHR8SPsfp/DD/OU5NDPaZ93GT2EXiIEn9PIGn63xeD0nvyanf9ctnSfamxYd4SXpnz9fPEzDmY6ZGSGrj8pju8z6hEn9hmqsklzApUOLPS/KU2FPTgyV705APcn5voOQME9jegXMMmMAd+CIPDYQCC2AFzIF1Gi8zbboRtxRhlogfF59GYyA3jEdjCTimi2gWZhZWAEzf19nP4V3vzD2EFPHztpQ3ANi2IXBz3ha9E4C610jaiXmbHlKfLBOAS0KOWJQ+a5u5SxhABDJIhcpAHWgDA2CC1GYDHIALUq03CAAhIBKsBBwQD5KBCGSAtWATyAMFYDvYDcpABTgMjoNT4AyoBxfBNXAT3AXtoAs8Bn1gELwCY+ADmIQgCAeRISqkDGlAupAxZAHRISfIHfKFgqBIKBqKgwSQGFoLbYYKoGKoDDoEVUG/QBega9BtqAN6CPVDI9Bb6DOMgkmwPKwG68GLYTrMgH3gEHgFHAevhrPhXHgbXApXwifhOvgafBfugvvgV/A4CqCkUIooTZQJio5yQwWgolCxKBFqPSofVYKqRNWgGlEtqPuoPtQo6hMai6aiaWgTtAPaCx2K5qBXo9ejC9Fl6OPoOnQz+j66Hz2G/oYhY1Qxxhh7DAsTgYnDZGDyMCWYo5jzmBuYLswg5gMWi1XE6mNtsV7YSGwCdg22ELsfW4u9iu3ADmDHcTicMs4Y54gLwLFxabg83F7cSdwVXCduEPcRL4XXwFvgPfBReAE+B1+CP4G/jO/ED+EnCRSCLsGeEEDgErIIRYQjhEbCPcIgYZIoS9QnOhJDiAnETcRSYg3xBvEJ8Z2UlJSWlJ3UUim+1EapUqnTUrek+qU+keRIRiQ30nKSmLSNdIx0lfSQ9I5MJuuRXchR5DTyNnIV+Tr5GfmjNFXaVJolzZXeIF0uXSfdKf1ahiCjK8OQWSmTLVMic1bmnswohUDRo7hR2JT1lHLKBUoPZVyWKmsuGyCbLFsoe0L2tuywHE5OT85djiuXK3dY7rrcABVF1aa6UTnUzdQj1BvUQXmsvL48Sz5BvkD+lHyb/JiCnIKVQphCpkK5wiWFPkWUop4iSzFJsUjxjGK34ucFagsYC3gLti6oWdC5YEJpoZKLEk8pX6lWqUvpszJN2V05UXmHcr3yUxW0ipHKUpUMlQMqN1RGF8ovdFjIWZi/8MzCR6qwqpFqkOoa1cOqrarjaupqnmpCtb1q19VG1RXVXdQT1HepX1Yf0aBqOGnwNXZpXNF4SVOgMWhJtFJaM21MU1XTS1OseUizTXNSS18rVCtHq1brqTZRm64dq71Lu0l7TEdDx09nrU61ziNdgi5dN153j26L7oSevl643ha9er1hfSV9ln62frX+EwOygbPBaoNKgweGWEO6YaLhfsN2I9jI2ijeqNzonjFsbGPMN95v3LEIs8hukWBR5aIeE5IJwyTdpNqk31TR1Nc0x7Te9PVincVRi3csbln8zczaLMnsiNljczlzb/Mc80bztxZGFhyLcosHlmRLD8sNlg2Wb6yMrXhWB6x6ranWftZbrJusv9rY2ohsamxGbHVso2332fbQ5emB9EL6LTuMnavdBruLdp/sbezT7M/Y/+Vg4pDocMJheIn+Et6SI0sGHLUc2Y6HHPucaE7RTged+pw1ndnOlc7PXbRduC5HXYYYhowExknGa1czV5HredcJN3u3dW5XmSimJzOf2eYu5x7qXub+zEPLI86j2mPM09pzjedVL4yXj9cOrx6WGovDqmKNedt6r/Nu9iH5BPuU+Tz3NfIV+Tb6wX7efjv9nvjr+gv86wNAACtgZ8DTQP3A1YG/LsUuDVxavvRFkHnQ2qCWYGrwquATwR9CXEOKQh6HGoSKQ5vCZMKWh1WFTYQzw4vD+yIWR6yLuBupEsmPbIjCRYVFHY0aX+a+bPeyweXWy/OWd6/QX5G54vZKlZVJKy+tklnFXnU2GhMdHn0i+gs7gF3JHo9hxeyLGeO4cfZwXnFduLu4IzxHXjFvKNYxtjh2OM4xbmfcSLxzfEn8KN+NX8Z/k+CVUJEwkRiQeCxxKik8qTYZnxydfEEgJ0gUNKeop2SmdAiNhXnCvtX2q3evHhP5iI6mQqkrUhvS5JHBqFVsIP5B3J/ulF6e/jEjLONspmymILM1yyhra9ZQtkf2z2vQazhrmtZqrt20tn8dY92h9dD6mPVNG7Q35G4Y3Oi58fgm4qbETb/lmOUU57zfHL65MVctd2PuwA+eP1TnSeeJ8nq2OGyp+BH9I//Htq2WW/du/ZbPzb9TYFZQUvClkFN45yfzn0p/mtoWu62tyKbowHbsdsH27h3OO44XyxZnFw/s9NtZt4u2K3/X+92rdt8usSqp2EPcI97TV+pb2rBXZ+/2vV/K4su6yl3La/ep7tu6b2I/d3/nAZcDNRVqFQUVnw/yD/Ye8jxUV6lXWXIYezj98IsjYUdafqb/XHVU5WjB0a/HBMf6jgcdb66yrao6oXqiqBquFlePnFx+sv0U81RDjUnNoVrF2oLT4LT49Mtfon/pPuNzpuks/WzNOd1z+85Tz+fXQXVZdWP18fV9DZENHRe8LzQ1OjSe/9X012MXNS+WX1K4VHSZeDn38tSV7CvjV4VXR6/FXRtoWtX0+HrE9QfNS5vbbvjcuHXT4+b1FkbLlVuOty7etr994Q79Tv1dm7t1rdat53+z/u18m01b3T3bew3tdu2NHUs6Lnc6d167z7x/8wHrwd0u/66O7tDu3p7lPX293N7hh0kP3zxKfzT5eOMTzJP8p5SnJc9Un1X+bvh7bZ9N36V+Zn/r8+Dnjwc4A6/+SP3jy2DuC/KLkiGNoaphi+GLIx4j7S+XvRx8JXw1OZr3p+yf+14bvD73l8tfrWMRY4NvRG+m3ha+U3537L3V+6bxwPFnH5I/TE7kf1T+ePwT/VPL5/DPQ5MZX3BfSr8afm385vPtyVTy1JSQLWLPjAIoROHYWADeHgOAHAkAtR0A4rLZeXpGoNl/gBkC/4lnZ+4ZsQGgClmmxy4/FwD2T88gGwGgIByIaIgLgC0tJTo3+87M6dNCOQnAwUYLJtP3PhcN/imzM/x3df9zBZKof1v/BQDBA/VA9PeIAAAAOGVYSWZNTQAqAAAACAABh2kABAAAAAEAAAAaAAAAAAACoAIABAAAAAEAAADFoAMABAAAAAEAAADBAAAAAKc93swAAEAASURBVHgB7N15+L7bWP//e9vbpt1GaVAiIZX4loZfhFKaHJRkTCm7UEeDX2WqowFlKmwpQ1IcP2U6yhiJMmyRWWVIpYiQhMzZ9mD/7se6Ps/3e72vfb8/w959/3Mex7rXda3zPF/n6zzXWtc93/dJF2xl8xn5TAU+U4G9Clxi7+gzB5+pwGcqMCpwYFPMdxrzMcv1eWPz+Pr405/+9Aiy62a2nfXGZ936PNvZprF1v/adfda6te+u86P5l+tsA8P4emzGXuuch7X2n8fXdjPm8Rx7fDA/Rmiq4M6cdsW54ILztzbnb8OY309v+Z63d3zuuZ/aOTbbbw0255/P/6Cs487n5T6P8Tae7iDacsZ+7ZPdYbqTtoqdD58aPumkkwaGc8FPPvnkvXMH6ekucYllj7FtnM0ayxhp3DH72S/dGmc+53eissZdn8NrzPE6XhMw55rd7GeMrP2NzXazfl3D2d8iUvt8Zz9j2j4ncXnvi0VvevR06edzGOEWB0Jj+/yWjW783HPP3VzykpfcvOpVr9qceeaZm3/6p3/afPjDHx6BYeB92mmnbb78y798c7vb3W5z61vfanPZy37uHrFzzjlnc+qpp+6dH62+e0bbg/jFjW6f34X1u+xnvPl456YAUDDHNY4Kn855Ov2uSUOUrgmbfdMZa7xeMfmdcsopwozjcXDkho7MvkdUozj0dMVNt8adJ4FPuIdh8ye7Lg7nnXfegfGZG13n9QNoe1MdxC5funLQW3wWT/xgkHzX80KXbT0bx1rH8nHcebj4ssOnseKddNIFm/Jh88hHPnI0HOOJFz+4Fj6cz/qsz9rc+Mbfvrnvfe+3ufzlLz82E0wcWjvVtzrAJ7BgxnPGp+dnLL7p445XmI3xS8Rp/EIPn2YlB8EUQJCIR5ReMPp0gAM3Th9m485LAgaZ/cRK75h9GGzp0hufZfbdpaOv8Zvj4gu3WPFlx8fkEhPjfLarRsb5sckfZnr+jTtmXz5q6Dxhp35N6ByPzbq+c76O07PFh8QtXONa2GzKzfEsxtniSxy/4Q1v2DzhCU/Yw3evIQ8Ck40xcf/nf/5n88IXvmjzjGc840IbAtd1fWHw08pFT8SATarfnD8dP2P0c12H0+qGbXJgUzRYD6gClGhE6CRR4vnUI68Jli8de+NwHdOHSW+8jVRixucED/PlB3sXrrEZFyapGDArnLHG4xtuPjNnOtgz3wG+vYkTPPrZT8xwi6kXs7hs8g1Tz0+jq76OiTzWuENx5IYOLslHPEKHM+mqO062N7h/4hOf2HzqU58ai5rPC17wgvFwyTgexa4WbMOjE/dxj3vcwHAcdzp45bqrTnGtxwtfjYQ1TrY38Kt/fGbf+JR7fstjkyNna4c5GFAggUvW+aUudam9YpRIRJ33eLGE+WhEEvk4Ny4RtnTd3dERMQme9HMR+IkLb+1Lp8F31Vrj0imecf5xwiM/vvPDl3i4MLDhw5+PRoxr+IobLl01cswPZ37NQbh0GknHF18+XYXzFa9FSFeN4kTHZsalw804bOK8ePla+KeffvrW5pwxF+rx7//+74O3dQA7v+Z45ueYfPCDHxzYcfvYxz428khfLmyrA9zWknESXzxhhce/tcTGeNj86LMpR+PJgU3R4OwwB6OnUzh9kzn7IaFJYk3EOD9E6LXEuKLSwV3r8jW+5jTHXOsUp4bPjCu2XOLLNz0+xpvcOBnXSHo+TRj+TYh+Vz7FrA7iOg47XOPiptPz1cRMh8vs6/xodZh989PDFWOuA6y5fsu9xP4F6+STl+cMaqvhrjmG2ZyK6dwiv8QlTtl88pOfHDYeUl360pfey4VNgo/YfOElbKpRfHFO+PAlaqQl5eKcL2z9LPvW21HBGMzGOUROMgi5MkSUH3BE6AhdvuHSs9NmoiVJDzedcQJTMY3Pk50fvWO+c8wKQGecv+PO+YlJZ1HnKybfcilufvT48KVrQ6TX8yf5jpPtDcx05VJcvUXHht9cQzrx6BzTqSMRz7G5qbbzImHDxwLlBzsxzl8+ernMvtWBryfK7D3RLsfzz//0GKfHT3w21VUsY3jrF+xLbM4+++zNZ3/2Zw8udHjB5EvwMc5+ri8dTvAJv/gaLx9Y4tGTsPXVELfiDaMjN/vVmRzpGBekRN3NWXgaKRDbkhAoksNoewPHZKeDl28kJemluzVJ4/zn4oTLt+KvFzUbugpeYeHzwxduhZvj8jHJpKLPfONEJycSVjHh0cFPZlx8qkO+Hp7AbPHlJ7ZmIdHPuRqHCwPny172snuTTkeMa80bbuyrhblxXK58+BqTj812uctdzvDAPvnk/Se/YleP8uGnJWIRvXksNj8xq1H66lSu4ejhVgd+81pzLk84aq85Np4fDD50xqrRzPfApohchgUscUXNpp5tC0ESRICCtPhgmUwks3FMDyOSJcHGsSTFchc7S8nDjSecdVyc13p2ciI488kXLt3RcOn54Uz44hhfY/jGpZzkCrfascumPOngxYeefxeVNoQxwp4N/8tc5jLDVoz8zY1mLL7OO/7Qhz40rthtmHKH2b2WjZbA2c7MqNFSq2Vz8Ye7S3Ah1Qh12LAWvOUCFqePfOQj4wIpV7440eH08Y9/fGzS5zznOZvXve51w+7Wt7715nrXu97AxKG5qe5iNc8wxNST+nFy5ObApjCGhNbERUqACjfrFKbgczBYCGoCI0VmEpLlK2H6cNjB5ZvOWMKPjtDHJz1dWBVdHmK3SflpCR0frfzDdU7mXPmWCx/SwuVXPOPsXN0I3bpO5aMG9OHCoNOIjWZMYyeumM7bLOVBj697d4saX7mzg/fWt7511PAKV7jC8B8Btjcw8bP4YJnzGVOs886bn6wvV35+8a6HyT4xbm4uecnl0YZ8cRFv4Xf2iH+ZyywPq5Z3ys2xh1/Lenje8567efCDH7z5r//6rxEP5nOf+2eb7/me79n8wi/cfXPlK1954BVbznJQf3E0tTma7K+KrVUJ5CRRhSUt6nTG6EqqXW2c0LWoW0Dw+IszTyY9CZsffwnAJcWZY9LPE8CuRY9vuMbZwdBInBzHiy8OfKsFPcGX3RqXzvjsa4x/uMXt3iPObOIrF5yMpecXrodU4erLZ1lky5NctuolrnFYNgRsQufq+rCHPWzz/ve/f7yU+nmf93ljQf3cz/3cXu58ca2+at78h42rseZd3eI9gm1vxJ/FOTutuTGWnXzFLBY8sdnL7elPf/rmoQ996MY9Sfnzof+zP/uzbU4f3DziEY8YD/WMxd+Teee1ODU/ndcf2BQG58QE5CiBJoyNJBSObp0EPZ0Gix8yJGy4FYg/iaDFx1exKw5bdsb5rnHpjbkaxKmih52+yWZHjGseN+vFiRNcUlzjM255hAW7PGARuKS44+TIzbzBy5WfuHDgqx2d8bC5w2U3484L1PMTV0h84eD+l3/5l5u73OUuA89C8RzuP/7jPzb/+I//OD6e8aAHPWg8nxEHVlziZm4ITtWhTS2WOiXVrvN6PORdTeNn7k499eAjBrzF/uhHP7J51rOevfn1X//1UQM8qokcYIn38pe/fHPnO99585jHPGbjHpC/OrHVWoe40BF+zdUY2N4cuB9J2YQ4B9YiqUglJchcPKB0Gp+1DgFFXOv5wTbORqEqOl2SXwVpXN+VXEwTlMCTT3efFUZPpzhwSXzz1ePb5OzCjXNX8nBhmyx5yUU9jCVtfrnArbb0/PBl36J3DFsuOJF5bowTix1ffvIhYnsX+T73uc/g4qERX9xhiv3CF75wY1O0ielJnFv8xuj4kPxxTvLpfO5bjBYzXs5hO26DzNg4PuUpT908+tGPHrnLT63F4KtXSz64vPGNb9zc/e5337zvfe8bNRTHuJaoFb/DeO5b5jH1gBCdASWPjCQqHBcBBNPWfhGosBWgUPnRw7RIwstG4nD56hUhXHxg8Js3k/H4wrFQ+CQwxGTHd8ZlY5y98XJ1Hu6ca3zCxjdcvnHV48R3XUO+8RVzzoUfwZcNvnESR/z/+Z+PbzHVxRVWneCds3n+85+3uf/9f2Pznve8a7sRPrWtgyewauNl7uXxuvGnPe1pm1/6pV8a9yAj2PamuDapmNWJftlUy8vZ2dXnr8et+tA7hicXvVzNjXE1SdzbPfnJTxkPid773veOvC3yamtzwMCJn7rQveIVr9jc8573HDDNnXGiVhqhE3MtBzaFiSKMBVk7NCH0XVUl2eJwleFjsvLVs0dYo5t9xYOBdJMcB36wxTUBXfnoE+Nw8dVgaQkdUXQCk8BdJnXJxTi/eDdpxuPFh15TWPZ0xTUerhhzDelgianRzfnEmc6xCbcp4InFt6s4P+cJ7Ljz0ejlftZZZ208X/jv//7vwbV6FC9ffOie//znb+5617uOd53D79WgfHD6wAc+sHn3u9+97T84/MLJ57Aedzm+/e1v31joMC1qmBqB5R7hmc985uY3f/NB24dPH93LD0e5wbFmqkPrp1q95CUv2bz0pS8deG0csejFESPfYTTdHHhOkRFnrXP2EkHIImiRGAcuiEXUAskvHET4erOGrXF+GsLG1riw+YnLzhUiPzrHdHxbCMbZ0sHlb7JhG0/CdR7nsPW4sld42MS4vOg0x2vcdOzDdZz0PkRXxcbloKmhmHyTOR/Hu3D5WhQL3+UVnQsuOGm7YP9785CHnLnVeZjk1ScfZVmeiOOvVSP9NsttO2n73OP5W6xLbh74wAcMGh7rL/co52+fqL9+87KXvWx8VPwtb3nLWLBqtPjH+mCvdkSPq3uzH/3RO2yucY1rbP7P/7n25lu/9UabG93oRuNCAEfzcO9Rj3rUeFItZ2PzRcY5/gSm2lgPLiZqQV772teOFxHUxdxYEzDw1ZO48U8ObIoGGWTECSASAiJgLD0idEQwulmPCEGMb4kYa1Ebi6Rxkg4mPczZBq6xFoljgpfjONE3po8vrPDYlw9cPPmVD51mnD97+eRj3LE6wZxzxIk9P+Pp5piOxRUzvjCNx5G/C8Ms9BaAHtf45vN3f/d3m3e84x3DZhevGcsxf3iu0s961jM373rXv2/+6I/+aMz7O97xzu1zkntv/v7v/37zn//5n+MzUDDVWd5443wsUSc1cIF485vfPJ4DPPOZzxpPjH/1V391c8Mb3nDz+Mc/frzsCtsFxD2k3NUgWdcRrg2PPz7uffjjhGe9Yy1pDjvXX2hTKPBsiAhAYxoy6QXVnCsoHf8EOefGZyL0dHzp8s1vxqXXZuE7J5kOjxY1TC2h46PFKdw4z7nGNz+9gq+5wk8Xbr7Flg/OLfh82ONTDXsYQY8bXYu+TRhXfXXAiZ7wwYfuH/7hH0ZvYYlxmIRp8XVvzt+V9qd+6qc2V73q1TZPfOIfj9oaF0uv1s2P2q3z3hWPn3g4VhcPj+TplbFrX/vam3e+851jI+DSxUIPX34kzp3jgX8XFnjuidSGrxcXvCt/PBz3V82RDJAVUBNQDwi4JAKVnEIgg4ie8OeHCF+6fOiNtfiM089CV5ww0/OFC58fTkkLAS/HdHrCHhbf+MKaRRF34ebPF158+eMJT8+3hRlufPX4aI7jxS9OPefJt7jy4SduvuHGd+aETxvJy5I9JKum4cNYi02p/vjh5T2Os7bPSTzP6MqLi3nDK27s5zle43aOJx7F1sPj37iNqI7enS8PORF2mrz5dk7nHD5O+mtd61qbm9zkJiN/dr7UVFz2xcObPjy6A5fgnApcIQUxVuLs6AbAljBdgjBiesmUdNiKTs8H7iww+RG+4ulnX8fG4Sb8NEVUUA/z2OUnlsVB8uWfDT7804WLS5xghEvvXHN1soAsapgwknDZ4aUvnzgbq0bG6I3hG64FSYyTdX2NlYtjNYZz3eted1z5w8mfzS7BPWwxPcHGyTE8OYjTxjF/neuPJXjAJ/Dm1noRCw9XdpjqyscxLqQ89NWcXjP2JV/yJZunPvWpI3f+8NLxb17zMTbLzk3BADgwbRYF8ZiTCNiGcS4IPfLIKuIsdGzo5g0ROXrxWkCzr4LC5Tfj8pVkvvFVcDo+xT0RXLHzdSxX0oSE7Rwn8WaxQcXdVQe4XQVtNDZywF0vV/hwy8c4oZtxxWcbL5upGvrIw4/+6I+ORe0xPMlunKxuLD6LsoXYcxi5iesCQOKJEx3+8VxBHjhlU53UQIOBv/Hqrfe9DWPqpA5sspVDOMZmrK/8yq8c3xV3L8dOPfJHhr1GN9diPt6/3G4dCsR5nWSkFA4A/QxE31VAkbQEaXo9P7p8I6kXv8ZeI/zo18VvnB08E1rCxTaZpKtduOzjJabCJXEKt1w715ssYgHBMpaEyw9uubKBTb+OmS++bLpi5sNeTDrHcw35xgm2BUVg/NiP/dj4SIeXN48lMFr8MMQzp+K5oMjHhtTij082x8Kn5zfXo/zo5CSOi65x8fTsxaBPjMlVfHYuLle84pXGG5DXvOY1xwaWQ7HEZTvPTfhh1l/ohwuQ0ICsxdUG6XnnsWEvmCIiJ1jjkVdIwn+NTcfXE6t1bJMEm49Jpi9RhaKn60o+gmxvmiy9Ymr56ltgxlu4bGHp4ZL45kuHr/Nwh+GRmxYSzHBnX1cu/NtM8OjVLJ1j2IQusVjUIF3j6oMTXHoyLyJ+3uV93vOeN3TLz82MwwM3/DWc8peDWhg35pw0J9XrANAhJ9WhnPg61uQkf/zFJ3Fh55jg4FiN2OHhHu1zPudzNn/8x0/aXOUqV9lbK/T55cvemHlNF68RYHtzoZXPMOOMEFFYxFvw2QBsUixqCcxiskrEQpj1xt0lI8+XpIfbhhC3yWZbTHq6NoRxwsbixEvybCoQG3GJ8Rauc7HpWgRtCDr5poPFjz8pbg8vWrjViI060Mc3XX2Lmj5cfsV1QTL5zsVPcNVIC9ZxiwZndbj3ve+9uc1tbrN3lWdD5Bwm3LCrC//mBC+5sjEmRud6OGIZd1xdwjCeHz1hw8e4mMVPF07jbNnp6WB6DvGQhzx0c6UrXWkPh3+8+eKgxnIwP3yNx5t9sn9/dGSkRDIQnPN6sujZCqRv583+/EwY4hau84gi6bziO0ZUI/zC5U9wcax3VRGTP7t84dLjyzY8cdnZLHp+TXL+fDU+8yYUmz/djGk8gUuKK59w9XGa82VfPeQ7P5Gn41cd8Kl+5aT2xnASN6xqqceZr1dzbAznz3jG0/ZqAJ8ff/a7BA9Cz47AaT4aM94xPZ7miLANR7yO2TvvgjGMD7nh03zn73mTH0L4oi/6om0dlodf4pZLNTE/64tyOuHgVdcLbYqZD+CuYOtFD0SibJqUGZifwrT44EaCX0Uzps2+dHCNwyb0zvmaSMWETeKg58u2YtOH3SKacRUCpr677yaWL1u4LXp2s55N+VSj2Y+OPz+LE5dyCdc5X7FmkQt/NZBrOGyqL585VzqxyjVf4+5pHv7wh28xz934kg4btjNu/nqCWyIWPnqNjr8eVzzondPTNZeO5UgnHknXhi/OYX1czT8s9wy//du/Pe4pxDv11OXCyz9+bHGa1yE9HgTmWg7OwhEjhpyAOVbYnNPNwQRkn41kFXwhukx2hTDOl+28uPKl4w9TsUgJOJ4fojgn+MEvJtzw6PnHVzHDpSP0Fn2F4wuvuHrY9DMu35kvPVn7wVrr2BmvxumNE3yqA85EPQku/JzzawGIq/Gb9Xycqwvfu9/9Hptb3OIWI74x9eMntzm/8uBPxMFZy88xOxjlAiOujdGXkzHnbRJ857hLtAvfsqsWHm77VO/XfM3XjJx2+YvTmtg15/Qwy72IB55oz8qMJSeBRBHo5sTo8nW1pUeiiU7HF0k9ncLOomjhzkmwJ/QV03m2jj3mhtdkGSOH8aXjjxsbxx6+FKuFJiabNV9j8tRmTsUMk128Zr7qxEaec31nXBzmOsAWr4luQxhP4IpD1wJKZ9xF5bTTLj2+YPQjP/Ij42Mb4lhU88LC4zDJDv/ykwNecp1zN65lmx3s2RaHYwkb+XsYpP/rv/7r7RPsy23fZFy+P26ZhCNP3HbVVx3oyhmnWY7KhFMOFUniCEloLjpb43rj9IRfvhYY0ruItkj4zguBr4K6IpNiGqvYfB1bCOLPMm9C+llg46wvJn4a/HzlUj75dw9hPFw+Sb5zLeI7b7Tqa6IIXL5w4zRjsitXPHHXCNzqX52M46VZKD23+7d/+7eND/QZD5MtCW852781LrYeR/Hlzt9FSWzj8aBjq8bGNfGM6503X9VhP9qFj8RRF7H4+2XCNoS6VY/qyzbccoLRnM/6OdqBS3UEAQjQOQckNAJMI2wbR8bVNnLGO7Zw4SFpLOGPqN5ElgS98TkubBI/x4rBrlevjJFwHcOc+dKFixMdTvHlA5fd+smZsYoKtw3Bp5jhrHMNl74LQ1zEt0icz3z5yA9PcXFd45YLPb70SXxh0y04529+7/d+b8TzWn6LlQ/7tfAh6cSrbs2d5yvm3ytBV7ziFTef//mfP2rqI+u+8POe97xn8PJDCWzlUZ3gwjmWqJGN7TNM5ucV2+9NvOtd7xrxugjgsK4vfL5izNzneGzK88CmYFTiQBJABBGTOS+wbJqw/AXQnNMhZOGm52fMhBCLy2SmjyAbXLpqVkg+CsSuDTHrFIfvmm+cijtvxApHhwdddQhbDeSDbxOBC2Fr8/O1gYvFV27x5Rsuv3LFGd95o9ETnPisNwRf+OJ6hUnOceWHq3OYLcR//ud/2rzpTW8a4+yrcbXnt0voNTHxgCsnG8uviv/CL/zC5jrXuc7YEJ/4xMe3uJ/e+wzTv/zLv4xXiV70oheNKz18/qQ6VYcxuOOGvVhyxdkvnPvO+c1vfvNhXX3nOQ0Tb35qMNc/DvN8XGhTQC/xjlvUdvhaKrrxFm42JpJewHxnkhIjCjxvNPY4WCR0LT5jdBKhI+mMlViLGma46fHRipkPrHTizIUtrqISunCdw46TgseJjpSLWPzETtRDXPmY8PPPX+7F4lUN2cGtfvkvC8EmXF6U4JeN+vKfa0j3N3/zqvFdC7+qcc455seTZPUL9WCPP5EjWfyWd96vd73rb84444zxxB22XJaL52mDLz7sv+7rvmH7ytfXbnyc3UfDX/ziF4/NsXzPY/m+eG8qFm8Em27UrjVhrTn2Gaeb3vSmw8qPtF3iEp7kO124wsJJLXwb0fdEFlmeD/llEnX1itzJJy+6Q59ocwTUwm1CW1zpZ5IINCGIZMuXrsXgWOH0FpFxtnw1MU22u3uFYKfBKUHH/PLBJ1xYXRkbZ8fXIuHbBi4/WBb9jOk4//juWtQwYIsPVywciFj06iQfNrtwjVkgvoCT4MoXhrh6AkMMj61NaD9OdtJJB/nuqgP/2972tuNLQmJq4sBrUbLZJWItm3C5UP3wD//w+Lj3l37plw5zXGGRXXVQI/74P/vZz96+4faQ8dDKxYBuXsgDZLqZa8pfHDFweu5znzt+2qaHh2yXfJaHZXhp3XuLRd88wLJetrM1Ih66KQqssJw5OW5iAAE3WZogCTt6Y01mExluvpIiYestTnEkSSSEA12Lc1kM+4tALDG12Td/ehPCD6fEeJzgl096Pa4WtUmAXQ3Y12DQO4epOeZLh/8cF2586RZfm4jm4PsQal9MOng2RH4Ws+MmVb3wnevABydfEPqWb/mWEbu6qqla+8720UQu6udbfd/3fd833iNYFtMyf9UXl2oAT2y5qkcXBvo//MM/3DzgAQ8YNXLeplhzWHTLRpO3xQ2rC7JHIVo1yl5cotfo5ew5z41vfOPNHe5wh/Hwji9+7tHI/urYngQmYCAlyLigigOErqJUYDqN7TJRPPexTQB8fvmKJbZeYS0ei4SwDUdMuGzjyoYfnR7mvPiMwcCvBc/XGOmYf5twKI7czHz584PJr7iO29yOEzHhFrdxvQmFNfOdNwRfudJXd35dFOKKQ/WhV3u+/BpnQ3xUx3eX/UBafPPncyyRB7trX/trxg8DhG/Omm821RRex3jjVF56H1b0XOOJT3ziqNERmgdozPX0ZSQYOMvFsXjywWHOIT/93Nh5su8LWM961rPGCw5f9VVfNbAKfOCeosEmvgVoHBHgJlPhFRWpWcevxdlCaEL4KkxFadHzh8dOr9BNGKxiVHi4TQZfMVsIxRSLiEVfPhaSYyI3MeWjr8BDub2Jz5oTfZjw2RXXeAsYXzp5znxnXLZzHWCfe66HYvtfhgqvuPnLUVz6j33sI+OXOP71X98+8mGrhnRqSNjyefWrXz1+56nzNu1Sl6U2w2HHjfr5jsXTn/7M8bVRtYGDk3v3ruBc493mj+tcCzoL9Cd+4ifG+yXre4rmMSrO+fNTe69C8fcxcfWOS/brXo78cWOP7zd+4zdu/uRP/mTMqYev5MA9RZNaQmvQ9YJf65FFTOAS0itaiVh8LXT+dKTN0oZwzi5fNrOfcxInurngdHxNnHzCnXPjK2e+eM/SPYTxdNVHTsW1UGCKpWeTbuaUbxcGOm0WT3rDoQuXjZgm0jgsE0pc+X/iJ+48/GwoAiPhp5FeKLARYVQvej5HzHK9UO+hy81u9r1jQ1Cqi6s0XwuTrOtrHtnNuapBsb/gC75gc8c73nG8GubJfhJn5+VjLtWWrxx8EclDH735ldMs+c09v547GvfEn8zxjjyCnaEOHnMUTHKSkVxXt5mEQIARVpg5CN+K0wITpXEx+IRrvOK2iOiMNc5HkYiYcIuJF52ePZ0ebtImtajnCYPbooZLN+PCaKPRxQcuX7j0+IYbjxl3XQc2sMVa49Lx5SNGV+S//du/HT9wJqbmuYVXYDS/wzr/aynd6aeftl28p4/xs8/2nYXlFRlX6H63tfrs6l2Zb3/7Hxz5mRcx5d+GwDOZ69AFCXciP8fqJN9v+IZvGB/5zrd6O8/HMZx8PXwiYppDWAl/DTfNPDaXalx9XWSc4zrHPLApmmBEIsO4SQGWc0HpFAgp5NIjCCOdCV0Xh43JjqhzeBKAg7TznkQ5TiSilWy+/LTiiskGFz0MG1hfcfiWLz9NLeJbTGMzLn8CS0y4bGwIsQhcreIbp2c/izoYawOnMwa/e4k4ieO70372svz4sBWPXnNsjMBwtTeuprDlI3a5DMNDblzVvdLUhubbe09iFM+8OIc510E868SCVg++xnzCtVewnO8SeeAJV/waPE0svhrbXY3OHNE5Ng8w9dVI7IOPGbYDJRcxiUtAwiakYECN0zvuDTTHhJ2ACEsg3/RrXOPF1tOLiXB4zglMNgreBOVbkYxXqOG0vcEXJ4LPesLmV3TSsZULMZn4rBcQvWKTmZNzedHLxxW+HOgI3njpl3uAJV51ssD4qy9fdun8BuxSp/3nSOnqlygLZjnB00hjcJNdvnRXvOIXjy/zyJWNjZU4L09YatTcsKGXp+Z4nlcXU18OIvEaJ9MNH3jm1xw6Fyf+/ObaTK57h2Lj3JP0PcX2YJ6XC22KlIIA0QvcQkCGtDBbeOzSOTZZeouv4qRv4cKtOBISm05cx1rjfOEpiLEZFx+2/PizpSds+YnFV892LRafXIrLJ74w5IOrsTiFLy4xufwSx/zYqwHsMNlUB2OwvXG3vE+xXFHp8dXWceXiym/cG1B6bZfMnHbp12Nz7rPv6acv/38h3+5pqgU7nOSI71rUVz7mRa7sNfYwfCzkWFKd5ckvOVru2dR7DtTHRMTli4djf1VGLrQpckZA42RC9QkACZImO52ebgmyfyVPb5HQ82vh0kkSOTH5zlca4+Lzo2fLP2FP38KmyydccYnz9aTB1Vyp4ZRrfMR0jJM+EddCIC3cdOxgVoc5VzYw6Uk1nKD3fNuo7PAK19Wav3MNhljZjYPtDd3xSvjs1350cpDnvCGqlTqIj+9h9S3P8M0FMW/r+gzFjpt8yvtYnGeI5cJz/rinwBEGf23mvL+ytt6SKmiGzhsTYJ7MGajgFh+beVGnM4l08CpCyRlTHHF3FXa+4ipuwh9v2PjQwTBGB9cxf4t+FvoZN1v+BFec4OabDqaFUK44w6Nf49LNEq547l1Ivu4t/NgxHJPIZpa5RnTsNMcwZlmfz7rDjuM/640RDzvi6bzY7rGMN6d0yVwj+jUn+ailf0w9lsQDRm0eW9dqjdf7HObSQ2W172Iy++6vri1CAYA5rujOkTCZEiDALJZ86LtatDiH4faGH3F1Q4iePcn/sMfk7NpMYrbo+cYnThZRxy0SuDAUQNxkxjXehOYHW1znc0z+YpTrvPnLhR+bfPmIRw+XL928WfINVy7xDcsGJvnCdKy81XgYbG/o/rfFvwdZxDhWk+ZA/YzNcZs3HNsQ5SknWGzMzXu3P7Z8LJmx4VQf47WjYag3HjjjBOPDH/7wAc78D1yGIhzwfC5oVynACKWn6+5cYegTOiJ548iQ2bfi7Vq4FQ7uvIgGyPaGL7GISMk6boHhyn8WC4xvfPGJqwmjd24TszFG9OHGiW/6w3DZtCHglKsxjXzyk7vvIeImbnmyx4+vnk1SHp2fSL/LtzH/mW1jmAfxzI17CQ+nmpt4qAO+aj+vB1zgqb3eJ3u9Iegj4McjcWkdqfuuGuzCihvezanfrsWx+eN3YFPMQAVFQlBJcG7RFWBOcL34+MyEFYd9BGAoHhuLhITLRlHZw63obCqEvpj84CRtJotonpQ13ybYuAZDk+ccM12TWdzi4VIufBW9XGZsYzMuf75wCT/Y7PjRaWoRV/jGrnrVqw4f5wmftcCKy1o3n8++ax867x6/4AUv2KvTzAlO/nLBb10jmGrLj7TBX/WqV40/qR+DR7mR55yHGM3VvH7iXh8kPuZIXBx898Nv5YaR3YHLp6TmoIw4aAi4aupnO4vPuYVnQmcxrkCSaWE2gXAQY9NCMJaezrmFEG5x9ZIjEsxH0uHma4zkCxcnmHEaBtubfNUArt4YgdNDPL5xotdwwGlXHcKFE9/4wHXsiuvVnVnEV/sWmSuy83LyppcfIPCxEOPruZuxTuR4xnGMH5GjP3b5kR+548Z/5VmI6lDebB3ja97Wmx+G9YI/nV5tzjrrrPGDbfMnhNmuJV748NPjpC7ucbTDpBzwZX+DG9xgc8tb3nK8FNwcbOkPudBnnzgXXGALQWCTmaSfF5gkZ990fOn06fUtaosInlhsiKJWvK4ALQa6FgDcuPAzLi58uC0eOtIbVy3qfNlrH//48tdRPnc/y5ba4MtGTP/VMMt55/WS7ZJnuGzkFecuKvTZePJK5Fn+Y2B70wKTR/WPK1sPZ3yxxzvbcq+GYbMl+ejheCIPs8XMBsd1fOOz8FFfP1zsm3vqCDO/5XNbC058cSJsbHzn3nPR88X9+7//+8d8eYedGJ+lfOQIt7UDAydv/rk4XOEKXzy77dWeHYw4ZSSORlcMupPvu5XZKCUCmqAtvtkZMcGWRbLcQ+SrwIrHFxHjsBQmnWP6MPUI8mNrUWsJe/HEZRcufUkX02QRPgk/8ej0JL7hXupSy8JcOC2e25CDM5tLX3rJZUt1yJbGls/Cd9lo+8+zGJSrY7nAKGfHNr5YaohrfORXnnQaoTfu3Od9LC6PiS02DXY5uhrahGzVylXUGPn0p/efh4iFy1yrYbTjRmzfffDVUrH9koZ4xonPLjmHBXfOiQ1dudD53NEZZ5wxbNVKXfntErnzxxWWesrLWvnO7/zOcdX3ZSl6wp6uuGzpqrF45b3O/cDjHYRyCtxkNxZZiy/AFmDJICGg8XlRS4gNonyXRbSELy4/eiTDFTMuFpFxWLPgRweH71oPV3M1Zls+8RGTuIcwtp2abVvuveRKli/yOFp07GD6zJB4/u1nFpj0BGe8ysOYOjk3WTNfuF0Y5hrxoVNTLy32xZwv+7Iv29zvfvcbf9/lntA9O1x2cB3zc9y9/l3ucqfx11w4qgkuFmu5irVLfMbJ8wqbze8tOferg+oJ65RTls0752O8XPlV/3/+53/e+JMWT7Lj2byI3THuRA9LHdtYrbXv/d7vHRhs6In1wJ5t6zCdcXWJy3CYbnY+fIoIu7WjYAAFmxcuW4tAYfn0sAcWe4nzpUPOuWNCz4+tca0EjMGViGOFJeHC4K9AFhjhnzQh8BSHX3Fh4kQX3/zipJenfPPVh5suP/0u3HzlqYkJc+bKd55M+lnUAY7F3eNnsWDQaXDnxp9PMR3/6q/+8vgapzrkL+463hzbMVv58ou3P1rxUzneJT799OWTsmzFmWvEz5iN6x7ibne723gegWu8e/jU/MAh/Ahb86E3ho/vhvsr5GXhH/7wOz95imet4ERgzTEPXt62Binrc9LPCzdA48gRAS0uBRNIkwAsE6mnq6B82CDZ4qvodHA1NsSGcAyn5mGDY3HFmgVf/uJ1tWALQ7wmY70Y6MoVn/R8SXzFqw7xEq8FmB+f2Zctv+rgnBTTeLjGqwG9cRvCgmOn5a+fOfEl/DXC/tu//dvHVzh95KHForbyOprIJw7mWk6///u/v/2Oxms2t771rbbf6LvR5gu/8AvHXMDCx+IT2z3Ma17zms1f/dVfjT+C716rnKvP0eLjCpMtTLl66NTc8oVLNy/6cjTesTokYXZ+YFOkFNQxiWy7HoEZkA1bydG1MPOjQ0bzmDbc/BSXKLgJn/XG+cHsXmDGbVHzKy4fgi9funlx0ilMk9o9T8XSy0U/+6afcemrlV48vqR7HmNEzUyYfq4TnZzhywfXNV82cPnKE074/Ho+oUZz/Rzjq8c1f1+s8eRUDehhwjkeEXf+QB3M17zm1Zs3vOHvtx8WvPzG/0N89Vd/9fgPO7jvf//7Nx4qvfWtbx3vWnsuVI5qg5s5wCMxNs9z42pQjmx8rdQrSHFvI5Zrfnr26jZvluKs186BTTGDNNkcIz8HMx6ZwCVrzHmBWvSKCXPGlQRRWNhJGHo4dPw6hw9XL0k2cdDjyxbuvMDCpQ+3mPzo58LOvvRtiHxxInQErrE5F+PFZUfHv/F6cdd1gJdez4+NRiyS6tkmMT7zcRxfOnXz4TvfT/af2Z/7uZ87ruI2avmw2yU4amzLxfObLnYf+MB/bTfB+7a/FvKyA3MmD/bw/Ye3TcXnnHOWTzh84hMfG/NULmKXQzzoeqRgHtTAz+/7MKT8xFAPdaBTc61aybv6hVmMdd4Xek7RxAIgLQSTaZEERMdWkSp6PnQIIannx99xNkjOOj4Vzvi86CU268RkY3xeuDD44WV81vGvcIpgM+nhELxcSdiVq3F6Y2KZTAuCfhZ85ErWm9QYvau5SRWnGsCFT695RcdYkxRfGGIW1zgMc8Mf7pwH+3R8Whj7uOeOJ+Z3utOdxtdA+bILg/8uiRs8HDSL29Vf3vzxKq/sxdXoupfjS+bY8eM3S+N6dcbVMYzrXe96m/vf//7jx5Yvdand9eVTfcMN03k893TbgT0GJZVyvSEa5yJI9jPJJqBF3z1EgfPlr0iKSdIblwTdfPWiJzg5pmND8uVn4XrS11h65zjxwRHnWUyW2CY53PRwxcWVL7tyZtPXIXEyUQoehs1A2izj5MgNXA3mvKio4dDBsrnDo5NLuDYEmzlffnLFR5t15swVms8b3/jG8XM39DX4hwkfwvaiSDzXvsbT7cJOj3t2MNg695Dt0Y9+9OZqV/vyUcvWpd68qkHrkj1RX/7qOteW7sAz05SMOTkP0JhG0js2YQIh0IKxMNnwjYTemAmDzc9CMKbRzwshX7jG6U20Xhw+s7RZLNbw+BI+OMmHPhs+Fnj3EF7mZMNfTP7xFVODVc74wIWHbzWAwR+u4+zjC58vG35anLMR1xjfONHFqZhsCF6kza22cAkdO5hyJvz9Pe8P/MAth04dLo4U/2gYcd1lQ3csPe7mQD2IHMT1nOUXf/GX9j4/BUed1ILwIXFU92I1NgyO3BzYFCkiKPhMAkCFNV7R+bFFREB2CEcmXIVnQ5/OcX4WSpOdD1w2dMT5GhuuBtNDEPbZ8vMyIK75yY+NsfAtPrLmx5+9ezw6xzYCERNmujF45Ead2OPEJk786eY6pdPDNJn8LGwSX3j5Vgc9PWmyxZOP8XR8iR4u/Ne//vXjSbKYxRpGh9zMeLNJ/OexYx3zqe3CTadPj6Njm0MejYv1+te/bnyOyU/m8HFPqjY93zFG1Kg60e+SA88pBMnZMencMSItku62GxcAkRbBHJAfIopvstiQsOlMNh9643yIMXrYPeaesfFhC5Nfi5uv8RaR4iSKCsOP/1rgnmwWz0bBs4VvwcvVQtMSTzDpxIVVLnzFjMus44uvfPCcudKpuQ2hh12euDmmg+u4uPyIuPQw8azGzSNOmhp+6lOf3L5a9Ibxz6l8SPmPkxO4KW8uxTqW++yzy+8wvfF4VhtzaW7l7ydqfNf7sY997HiOIddEzfmzI+pTjbKpP7ApKn7KeskCRcBuRShbgegV12Q4p480DJPBl36+IsHkC0ubr7j5w2XTZMcp3KUY+88/YEq2mOI5hwHTL+S96EUvGn+K+La3vW18nt4GiFcbJi58/FiWlzH9kO9Vt59MNRYuHrjLW8PXefdMsx7XJqd49MYI33BhzJPmogDfWHXmIy/+YfA3xpaog7jwLBL961//2vHHkP/6r/866mpMTvxORIqRz/H6H8vvMH081Vat1KIxF5vTTjt9rDMf9vOTnDYIO3NJ2JBqOE62N3O9jB3YFAYYZBQ5hW0yEWocIbZ6he9VEHqNDhF9izpssfjAZks/LwJ6C5QNnZZvuOKmY5/gahEpBtsWkTeP/Eyj/2UQFzc2CgeHXxxgJ/Hz2r5/GfWTkexhqEe8migLTONHYGnymTdL+OLCgmNR8yXOtfTlE0c2YrKRI06ziGnDi6mppcffP//z/+/4QTRx+IXv+Hil3NiLfyJyLN/D9MbLtQuZHIzR+UBiNfDk+1GPetTm6le/+qDmjUq6NsQ6xnx+6KYomIJpxIQ5pgOi6BaWY0U3PotFYLKRoScS4EdgOUaUjeMw4Drn1yJwLlabiS1OxuAaN2ahkK6Mxrx59PM///PjIwY99POqkbtePGD4vSQCixgTM17OLZxHPvKR45OixWUvz63p3qI2prGBj5tj+eiJcQLfsUVfLOP8y2XeLHSET/dscJ3jVx3UsBqx81ORfnjsfe9776iNMXW3wLzIIIfjkfizxfF4Jb/DfI6lF0duOCc48zPmN26dWy/yvsY1rjEeSrmYOVcbunWczsM8uIq3owwAEBMkiCQi0gI1ARWfLh9+7FvUJtqEGdMiABc+37BhGMvXePH40otZ4m2IYkqar3jzhuD7mMc8ZrwEadxiYOc4XvLpGAfNOZlrIvZ97nOfccWlp7Nw2YtL8sPXMR18fGe9Y3h05Vkd+eBJqm+4xuha1NVB/gSn+NOJ8drXvnb8/uuHPvTBPZ5i0amDehyPNH9r25nbWtf5Yb70dMejVye5sdXLQY5q6Ni4ejn38NjHUIyxUZ9i0Gu75MCmmBPLSQCTDWytd97uC9yYhUsk0GQ7hwF33kyznq9J0pcEP+d8XdH44zNzagHMm4ldC+xtb/uX7Wd9/mx7bjF5mdQTeFcdr2K4gttwIu3HmvMNBya+//mf/7V9TvL8rZ8PObpSuadbHvY0MfwtWpzxbwMa19RAgydXdU7kw3euQzVgww8XOHEzzo+oQ3Vy/pGPfGhzr3vdY7tI/mXP/rzzt7lfsL1n9ZrHSVu/bYMnjgYXHn7V11zTdV4ebOIj3lpmnuxgF2M+pgvHl5jURSy1mXk5JuLGT4zlPyaWNQZXnc4666zhX278+IsD2zg5UrpxfGQpjOM9g+VseeUHuMZZs2g9XgeMLFKz0DfZczJ8kTDZJcoXjnNiMtk1PuPyM66xqTAdi0s8DKiwzvn5EFp6Y4dJmLv0dGLjqvkXHd9XLpeu0vmKi4eJ7R4EVwJLjfRdvYoND9d1HfKlqxbuhc0N4ee4ey1x8RXnAQ944PhhALoxN6fsP2F3buOaK8ddbHAnYnm4SS92nMUj4hjXl8NQrG7o4u0YVzEcy83cO/Z5ptvd7nbbXwR/9vgk7XwvJh+x9AQecc5Xw1+erU2/oCgvfMVhI6744cA4UkaHu3/3iSMAjk0GY8CBA6SfpeBzQP4VcCabX0TpSL5zXLiawmeTPk7GW3zxplNEj6X55zNAjnEz26oHMaagp5xy6vi5SovJy7kVl56tWBW+RV+4csGxKy+/4tHDgLn2tQjoTLiWxK+Lis1CYLqAvehFLxwLxQIbC+kCD5u29+bbewc1jS8/LzX7noS6iU9nbth50uoPJFuY9eos31nKx1j8mj94YjV3xn2O6cbb/4y4/e1vv7nuda87YtgcfB/xiEeM95pw7zmgYxdA70GJLZ4eX58i9nxRjc2PWjkmOIvbplm4qf9Qj5tDX24QZE4MUIu6xRcMYMEQolPMWeibsCbTGEwx9BJyRSJzXH70MC2UfNjxoZdwCwGH4uNLN3/TjN+xZI4/2y4FXDYuHmKWT3bqgBcO2ozFh57Q4VYdHFvAcoTJb/a1CDQxy69awJC382qIA6wWAT/+zpujT52zvMFlUYq9ueDcvQVl8akfW/rHPvYPtu+AX2u8nO2rqB6vwxfb4mSbzLwb0+OowatG8r75zb9/+yLIz433Fti52MCwuP2wgJx+8zd/c4zL0ZzD8AUlNrDkpm7y8/Vgm8HG8Nmo5o0N27m2jrcpHJCDq/eIak4KICBkFEESs57LTKoJM86Hv55IznmkHJsM53SwZ2lCjbf4shGTnu8c07F4cB2zd1XMb8Y/0WOxKjxf54lcdvGlx5Xg1KKuNjA0iwoGnuo8i4UEwwJNN/s7ZmMhwyDZqcEXfdEVx0uwfTsQz7HYT12+QwEbhxZW9bTg8L3f/X5jc6Mbfeuw8af0ruAve9nLts+r/nx7j/ne8fEKD1Ms5qOJOO6t9Pi5yj/zmc8cPyKQH25qIB9rQm5eMVM7r/p5aRV3GPRtRptkf479Z8fHNl/8xV88/hhGPm00cbV9W/NY9KXfuSkyUWDBmwBkKjobxwqpb7Lz1fOVHAJIE8Vnr9E5b/EaS989hEXYhhgA2xu49GwVhuDoXFMomJoC+O5wuMP4BG5wSsRYNsWyiKoL7K5Cu/jyp1eHJkMPG4Z8HMtljudYnnq5zHXgzw8uqb7G2JI2oX8Muu997zv+3MVVHR4/PjA9QZWDObQo9eF6X+emN73Z4KmWfCywr/u6r9t88zd/84jx7ne/e/zKxx/8wR+MuPPNnI9YOMGB72GaPNRAT4cHOxxmsTFg+Ros++oWFp1N5sLg/Qob+oEPfODmm77pm8Y6g8XWGk74iEe2h9vjRXNgU8xG1AV3XKGRTyRmYUsiPV1+evZ0c/Js+IqnyGE6JzDzhU3oaiY+3KE8onfcZoHLjpxyynI3P06OcrNfoP2NsDa3aBRX/HLiJ5bx6oCrHEh9V74ZE1+C7xw/TDjiVId8jYsJm05sY3riwkAP1x82etPuiU/8o7Gg8VDjcjnv3OXlZK/zLz/yvNkurtPHa/w3utGNCjliLfU9eTxkovisz7rE5prXvNbmqlf9uwP895ymAznhp3W1r47L5ndRc0+5/56V/NQUtx/7sTttPwH9uZtf+ZVf2dp5wWUBx5W/OlhXbP70T/90fBKBv4dR7qGqTZTUi+AVlvP9Fe5sEg4A9YgDnCdtSWK5h2j3sU8UnS9dZFpEdLAkGyY/ejqNzoQmsDQTKQ4dG8ctSH7OK3hx6fkeS2Yua1s6RZc3EccYPsWf+YaVvlxnTiYwXLnj6FwrFzGrb5zoLHocuoeefXGkm/n87M/+7PguNXtX+uYiPvzlQe+j934MwYaAQ+g75iMvIi+CUzmPgdVNOjjyFh9GOMbw1djED75FrQbuBTx8u8c97jHO2ZEeGfDxBaozzzxzbAiY8KvRzEEu/MOY6R7YFLOBAhFkWnzO2SiAXnEQIYI4No6McxOKyEygK1i4EWUDVxMPdjpcHHf3qnDp9HNMOr6acRKvfMbgdGOcjTj5GJubcXo5lU8LE5R8jBejXODS8Qtbb+HKs9gw8oWrhuKx8bDAf1G8/e1v37sHoDPZYhLnRFy+/Kq/cd+dvtvd7rE544wfH34WC70N4irqHFd1+43f+I3NrW51K25jTN8Ck0v5zLGrSTnySapjOv74Gj/vvOUj9jiIT6oDTHOOp0ZsDP+R52GU5wzypdN7B/t3fud3xve24fOHZU1UHxzkWnz6I8tk4Ls58PAJKU6a4pASiXCThYjCZ0PfFcoY8oS9IhDE2bWow0bQscVAVwGMaXyaaFgSaULonEu05xcj2JGbpQDH/maZOHB2CR3Zt1ns2IuvVrMvO7nqLVy6fd/lsT4f+VoMpDqVlzq88pWvHFe9N7/5zWNxsPOqigXrR9AIbD7mQv3htMDELK464HLPe95zy+2c8Y+k/I3x0V/mMpfb3H/7LTaf7eJnXvCkd8xGLE3emjxhlyPMXQKv3PTsNX8G31pznizztv8qnnEYYloD3/Vd37X5+q//+vHxd0/yfdbputf9f8Ya8N+B/NWQfVJOzudYU9hhemBTGOFIZqcxsL0RqIKYhGxKtp89pPNzJfRe8fAussJKXvMO8gUXLMV17l1lE3rpS582JhcHTcEVwNWM2GjpJCsuP2PsjDlOKqyXZNcSd+Ozj/Nj6QrBTq4V3nmLRF50CR2+cmlxtYktOPzVwZXxvdtf4Pbx5+c973njU7x8L3nJ5d3kT37yE9v/n37s9hfxnr25613vOl4JguM/7DwfgF1t5LXUd/99BHHuec9f3Fz1qlcfv6r3gQ98YPC0qH7gB35g893f/d1jA+Cdb5sGLi5JuWbbuH62q74zn7DWdeKrHrBh0M9YuDg37z7TdNOb3nScL9jLpx56oi0GHD0cvuyc18Rby/6sbTUteEYlgoBjC0yA+R4iMH4CbhH27iH4aPzpu3d46UtfutGWq+Tp219+uObmxts3bTyOtYjEqDeBHjpIiD+ZeVU8nLp3iS8+9MuiXd7ZVQjCZpesx4t1mO08odmqk+Ml7sGHlnQ4qMeyCZaHPnBshnPPPXv72vtHxzvQL3nJi/d44qUucJsD76Y/7GEPk832ucIdBuZpp+1/wYotXLFg41MNvTLjhwv8EoafnmHjoUibNP42sBo258arER4WZjqxkmw6rzcuf5iJ89m+dVZtZx0f8ypm94a4N69eRXN8+unLy/t08RIzWzb5xGPuD2yKWeFYEQhARQCkuIlxNoIRV3KF1JeMJ0nnn3/e5q//+mWb3/qt39q8853vHEQtdokh7XMu7tZvcpObjpfSYIkDi94CgldS9CZabFfGEjdOWkAw+Hr1KT6LxbFvy322hGH8SFkOFNZkahYePtWEv7rhq6dvQorhNXW1+OhHPzzepPqLv3jeyB+OBaDOcmHvWBxcfEnKewjbmRrftTbWQo2Di09x51zo1cbVVgx8q69YXVRsIKKmfDrGAS4MgtfxCI4a4dOxczEaw2Guk9ytmV5SLj6bZU72/3C+3POHO9elPMTcJfsrfKstAMPIAxO0IgZiTBEF5Ocq4yFRD3HYWdSK9tjH/n/bu/w/3HRXLWGLo2T8NqmfUPyHf/jHza/92q8NTLgWfEWCJ04xnZvMEmxCm0wxNJJOvLUc79jab55M+Hjip9HhVX50BJ/qKj/nfPU+PvHQh/7W9ofCnrN3xVY/dYVlEeirCzxz49zFBs5tb/uDey+Vdg8LWyP4wDEnelwc823zsYOpiS2GuQpDffmy1whcGLtkXd/mk71WTrh4k1UcY84TGOLS8afHidAZs/mtPTrSWsG1XBofBtubuM2x6A5sitmYYYkK0BUBUAnp6ZBdgA/ezRt/8IMfvHnc4x43oBGWAKJ0sBTdsbEnPOEJ4/G0b01JWjJcwmcFAABAAElEQVQlHzfFEbfHzsZh4pFu5iTGOvnOw5z7Xbq5aIt+mTA88KavRsZmMVn08mBD+BC83YP4vJE3yc4668VD1wLtogCT/5ynBUtv48D1UMondb3bbK7U1Ztj1RlGHN17m4s2BBu11qshX/jOW2TGm79wRhJHbvCrTrtqyIw+Hmycl6NjuGLoSTh8HOOjqR8bDW91kQsMx9tuT8+Pnb5cYIfJR5tliT6NRE6wgndFABSI4ALRCea4wloIjr1s5vPs6ZpU9hEJjw/9C1/4wuHHR6HFJM4tIKIAFc45DHoTp2hNkDG6+BWTz1rCWI/vOmer4Yazvpz0xBg+7NSoicGpmsnZ30v5foavyLK3kPXlB89xG8kx/+Vh6fK7S3Rw3Ns+9alPHZ/enZ+jxVfsXvOPg3pVN7182hDskxYjPupLyh++hzX6w4QOdz4dwzSX4hhv3sIwboO2rnAmOGh8uujAgl+9+PYQWz7GE7rmrbG5v9CmEEgTBEk9ECIoMHfNjun1RKJsEdF79cSVPzIwO2bvnPAvnuTFeuITn7j55V/+5XEFpTdu4sV2ZYGfPww+OPn1Oa+ALT/U6+ri8/nnjsIpPv9ywXdujcNbC92sl7JX1JYnduJ7zL/UQQzCHmcTUo2Mi2miTaYny36lr38HYtcCLaY842nMsbEWk9rw07yq98AH3n/z53/+53u1LjYf9yrzZsCHeAfZy5hs6PkUSzw54avus56dOYXr4xSeGyawiL55h1MuePtx5Ctd6UpjrI1Gn5/64cFf3DDFxUezHvbXoTlY1qh1CIs+PD0OakzkU33GwJGbZSaPnCDASHM8k2AC0IQK1CLLhp6OPOhBD9o8/OEPHx/KCgeBo4kEJN4EPOMZzxivmfskJDHuyaielIzC9QTMWEWfbeCauAo+AKYbHI9H8mffJKmDRloAXcVNlrHqmT/O+HiTzCtx5XQ8HI5mY7Lh+gySzyOR6mRuLC5c9XjNc8eXjn115M+Pjo85LAc9/3BtiDPOOGPYyUd9iBrgxJa/GHzMpYd6xtoQw2F7o75i8oGjGcOrmM5hta6cE5tN4zPj5ssf9znH4TjdHPqnLQXhTCSKqPN1MCSW4p09fqnt8Y9//CgODMXUR2aKvXdYof3pht1fQX1eR0G/9mu/dhSxZHDBw+JyRegVEm8EJWxsKH8w+JKXvGTzjne8Y/jQF89xeTo+lrDlq/f5f28eefXGxCz5LVcpnD3pW08YTl5p0u6/fZPMPYSxFqMXKi6O4OaC9YEPfHA8nLnB9lct1MjcqKk45VANzKl3len9ubrxdOYVP+d8G8dRvrD18tSuec2v3p5fMF5W9tLy8kFMD/dsNt9S9HLqqdvvZXz59vNYd9h+lunHt/ekviPvwrE8vMFPXLjWTmtBTPHFpBdvFyc6ko4PTMKXWDuw53yG4sjNhX64YFZ2LJDCRsR4pB1bBMg//el/Oj4z47VvpNhY5B7fOo4Un2Qm5nPwJlUSJqtie4f13ve+93g3F4ZYepzYs1tkWVRezbIRXvSiF28/2vye8dn/XbErVlyO1ctBrPqrXe1q49e1r3/96493WK985asMnasgiatjsdTCT+x47I8f7qQfKd5WdZxfnBsTvqU5Hsr49RL1rU4WAu5sSPPq4ZOHnrMOdxuCrXrP82Tc/Bgzz2yMyVF9/KaUh4b0LloeQsLTk8tf/vLjIxl8u2iyFZ+dXsz9eR1uIw8xxKMrD2NaF22YdHHGLX75pluQD95eaFMAJzkpnIaoqx/JJiJ0bL7t2751vOzq3L1JC1tPkJ2lGI35MasSQ16BSt6bTd7LsMGMaxZVhfGQ5W1ve+vmSU968ngn2MbEAReLwgTMUg7z2PEcwym+iSMKLrfrXOfrx4fVPL6mw01d9PhpniudddZZYwwOnTxcWPo1kePhsctGrvC8o2sB2nj+AdQYkXNzYIPirUbrxWccNyIPPnzNl56OzbxwqwGdjQBXS+ibW3jN/YxtnuRgbJ4vNST0Ymr54wNbM8ZXI3Tw6PT81CLfbOZzY11iHQ8QfUYSbFLbEBWenYlUUAn8xV/8xfgvgoJXgM71sxTDGPJEPMTFLDl+2lOe8pTB62d+5mfGxhATxtvf/vbxO07+tfPVr37l4ASPf8WYCyxO8RyfiOBhYoiF3GTAw8WfGvqY9jWvec3NzW52s/HjaVe+8pUHJ68O+eSpf91hL8/yVaulHksdToTTbNtiwA1XcdTSeWJMXHoc2hDb4S2H5R1jecGia570fODFv3iwHcvDZuuhozgw4OnDZDdzgglbM1czbuMw4hsnPLR4tUbLVY8D4Tvj5hvWMDpyc+CeAnhXlQJVgMadAxJMi8hP/uRPbp7//OcNfwkQei8xemzvqsGXzEQaMy4GHwWz4RTIInTVw4efHwS+173uOT6WYIE9+clP3rz85S8ffjDYNRHzuWOx5njGSHx26RaL/VuFlZ8mlpciiasj/oqPs3FPPv3z5423H2P53d/93XHltgDUTJ+tuHCPJ/4+kwsfib88XPnsEcNvxfaQBbY8u4dQ4xbJNo0t92W+8CLz4sy3C4I4bRg1SG/OqsfMTq1aLz3/o7c5xKGHrR5a0mZxLsZ8z+O8OaCXW750JH954pvgrBE6vuVg7MCmMJBUnJwa1ytsJBWI/NAP/dD2K4ovHcEkKigdWxMwF284HLkpAT17BNnqI8tUASTN7pa3vNX2X3E+MJ6ottmyZ4dzfcnPMdfHfElc1vrO8TO57OVYjfIzLp747PA15rwFhW8PLywKk8Vfi0fxTrTP38NQH5TzC3kEp+bCOT4taufb0KP5UCHOLaDw+MtHP28WvkQdzLPcYBPxzIHeZjFuHTQv9fxgu1CwmWtpXDM+bwj47NRPbJzwLk869XY+c+JnTGw2uMGWp/Py3d8+W4eIcmZMMnTMsQ0hQeeNuyKxLYCACMCBO+uG03RDl/2M2THTWf+0p/3p8FYMNmEXZy4OHZmxxsB0ky4sqvwyoysfY20Ix7MtnsQkEX4mtnHHFl21LvaMMRx33LDR+IgvxnyMn/PLXe4ymzvf+c4DoYtS8yZ2C6EQXjGyiNYLiB7PmoVbjPi2+MzFejPhIq5xejKvK75s5nstuGKok37epM5bBzYEwama0MHjqxe3ug/j7Y26hRsXtuXDbpnBIx4ZHTnd6zgBQoRNu3YO6Du7dBpSFVIvab5wDpOj6fI5mg3dnFg++qP5zXYX1z+sOd58nP6i9haRiVbTroxNsDHHHr74CPi1rnWtEUbt3TPRtejneYPZvJo7dnHWt8Dg0PFtEfIz1qI3Xg35WYB0XSDmvOn5dpUXa44rH8IXZrH52WjG5FM8PX86cem6aPIl8WWbn/H52PmBTWEgcjk6R7CiK4riVRw+iPrq4qxDQEImyevyPbZlT8LXF3PRHN/t0fzpEtgnKhfVf+03x551J8onezW0iNXVfFhwcMVxbF784bt3ybsyWyDmogU08zBvcMzbpS613LOlh8lXTz/PNz6zr9iz8NPIeq3A42uh0mmJ2LhqMHFmH4fWIS5tFr70pM0y69iS+IohZnkO5ermwKaIwOyAfGQEm5OA5SqkAH6u3l22hNiw5dsTZhjJjN/YifSH+RufdRXreLEvrr84c/zi7hpLdyJ9NazGejW2gOR661vfejyPaCHQ8/G+iTlhExc688b31FP3n9zOer7mUSN0MIoL0+ZrnI3Fp8064wSeTS0uzDYuHQzjGsHLmCZHYtHLzWYpR3zocXIc3zgZEzdO9GEP0CM37JIDm8IgsEQwgESSgTXW7ovIT//0T23/S/mGw4etQN3t5hP2/+1+TvKixLq4/hcl5rF8zIdaq2WLTp1deG5zm9uMX7nwxX2LxsXK/NBrfFtI/DunM+Vb9RB5W5j65pyCPWnOYbUhjNPzg20NwWXT4ky/xi0eXBsGpntE4xqBIx+547QWMflba/P6ZWcj0bUZqgFsnIpRz+fQV592JcFR0Iqmb3Ic+zqld5Pvdre7bV73uteNZPggAi+Zic9k0h+rP8y/8YuCKeb/hv9hsWEfpjtWvunVuprDMtle8v6O7/iO8Y6/HydYJnqZox5+sHNMuvdosyzYrsjLlZwt7BbRol8eonQ1Np/01au5tajh4kmXHh7dLtzWmbzg4pmfxc6HjeM2S3rjOJH1hglXD7dNyhYmPEKnzXLwbNIAIxLUEoCBHizs8tr2Va5ylfGBwBve8AaDCFvE50KFoT8RqdBH89+Fmd/xxLo4/rPvOuasOx4eu2ws2OaF3kK4yU1uMr5kdIUrXGFvIbY4xcTDQuPH32IwNs9HsdKt59W4BoPfekMYXzarhyb77xqbXu38860Z9x77r1CJ6WM9mqe2y0dN9l/RjJNcxHYvQHAncqseOGlzbdr87nnmh2lxzTa8AXrk5sA9RUWky2m9i9yNAdIqduc+Sv2JT3x8+wG9y44vC/3sz951/EEfPZLIiaGthc2u8dkOl4viD5scC3+ONR+fqH/2YVzUuPnPvcm3GNTiO77jO7dvCv7O+ECkGPsLYf/j9eyaSwusKyp7PDXXv2XDHPzoDD96ixK2zdKG4F9eNgTs+Y05nE3zOefMH//2vGbJxpTYEHDl1BP9chUTLg5iih1nvXjEmipHfX50zmvNSXrnbSa2sxy4p8iRgeP5HJGe6ABr9wlKp6iSPOUUd38nb39S/UrbK9iDt58k/cZxpfCtMMV3xeAvWb5iSH4dbyZJx1ZCYs388mt89uuYrtZYfvWN7+pP1Df7+l2Yu8bkpzaJc4tB7i1sdfYn6re4xS23/+v20O2TaN+hXj7vpL79T4bY/JI2UjVPB9fFTPPwpHF+MMwNHsbNuXoRPX2L04ZwnsA95xxvoHky7+HWkhd3v67Cz0/tGO83bvMXz2YhOKkBvGLKhahVfPVLLss9Glt6Lc5ygctuvjg4n+XAPcWsmI8L1iQ1cQUzjqjW1YIPou9///vH32q96lWvGpC+++CqoABapGEcJsWpaOwaczyPOz8e+d/yvyixD+OHk8ly8WlCPYn20KFa8b397X94/PeeT5sab5FYPKSFQtcigAeblHvzZoyvxid9c8rXo4JZN+M2h/mxs+j1NhK9Y8JGXHo8e1jUerFwNTp82M+4agOLHxvHmuM4secrLqGHD3fmyidhU5z90SPagmQcWICAIsrWuCSNrTcEDC8H+ti3N5M89JIMYk1A+BKapRj6NSdjCd2JykX1X/vNsWfdifLJXi0tFlhNssVoIVhc9H7U+F73utf4+LXaqX09v5lHOlgtMLHY5yOH5sNY/niYE344kHTNuTG+rQnn8OjDpU/4w9Rs0HDpYYjPl4gbbnVWBxh846LX4uSYb3H5qkO4xjV24Y6A082FNsWk20sQWQS70jgnelcTfToE2FZUx35oy88Z3vCGNxzkJNcVUIFM+FwghHeJ8Vl3WFK7fI1dXP8w1vgzp7XuRM6rITx11JtgFxsXlJvd7Kbj5+j7voaJrv7zKzPqoq70MNXWPJC40otBX9xs+GkWj7khzbl4dG2WfLKZ4+ZLV0588eMfF9jGuvfAZ41Lxya+fJ0XN77084YwLk9Sno75a8WOy9BtgS90qW0ImIbgOgnjAdJpicIIEhmTAtPvFHm59pWv/JuhM9F0cNgXdyYIc9d4Y8U8nn7GvTj+a99w1+PHw2m2gaPW6le9m4Pb3e4Ht19O+pXxjT+v1PTQxmYoflgtXFgWJj1u9S0Ui6eFIo5zFyx69+jNqfmBxQY2gWuMwNbo9MUdyu0NPGJhm29x4hMna8G4mPqk/PU4hU/vGCaRB6w4GVPHuMOccfnW+PBNDr2nyIExML0AiQIgqjgVjw9hRy8JReCr+R1Uv+vk+wbpYSjanEwx9GEea2zWH+t4F+axfNLv8t01lv2J9OqmFk2gGqmL72bYED6Kro6el3VVbV6aGz5htODxy44fG3OWHkdxLCK2xtdzapye3ezHlw5uvvM9BF4a3/LCBQ57848PsVaMJ/zo9K2j9OlgwTWejn9+9OuNRq9GYre2cUn2GTQy9YIoQME4IgPsMJ1g7CShENosvnTz0Ic+dPtQ6gaDmAJmKwGNf232dWx8Lfmtx3edXxz/2Xcdc9btins8Yy02k9jC5efdak+q1V7d9T5T5qKj3rgY59M5DGN0BD96vYXQoqeDZ5xv8+HceP5twhaYcXrNeiDpxsn2Bp5WzK70zhO4/N3jEbjF5kvKRazEuuKnZlqYen5xz5ffjOtYfXbJgdGAM2wXOS+IJARVvMik0/fhP8lVYP5tEDZf8RVfsf3yzS1GUiZKY9sEsF9LxVqPn8j5Or8T8Z1tZ57z8WxzUY49dFFT9YBrQtXNzwV97GN+CMCPMXx4fFy6XNioqXNz43x9xaWDyY5OI8aNweU7z4H4Fo25bgHOuPQaXP7iajC18OmdF7ONyofOuZxh4UJmXLpw2fLDJ7/iOSflY9z61RoPl/+sY0uXHNgUDWbAOHHsyTGCdnUk6BHpsWivQM36dq4Eff79fe973/Y19ocMLP5s52SM4TC3mQv9LHSagoWFJ39jxLiWbdjOxXZOT4x1rk/YsTGmqC2IxrM7rOc3463tLBx842PyLFR/T+wvdNXYr1+IHU782co5XeOw1B/X9ZUahnHNMd9qgFt+dJ7cw0zgiqnnZ24JW3Z0cpkvjGwJvZh6Oc+LXkzrjPAl7OASes05v1182fOlT9ipH6Gb/cLes+1AX0JAOWWMhCQlYKzk+LDtXNEVKKFDRAEQ1Bz//u8/djzphmuMD4zi5V8P53hEsibCBHncra8A8OFo5dax+HjJkY4fnbE2lfj5yak4+LN3pb04Inf1EKMGDw+/9vGc5zxnjMuH4CYnPJqT5ofemMYOhrkhcs1evnT80g+j7Q0/fNhXD36k2ohPl955+uqmPsWTF1xPqo2t+fKBUf76+IoZX2N0JE64xrca8SEwzQ9bvmEO5Y6b/a00KQtkSKASlLwA6R1X9F2B+LKhy9ePdD33uc8ZmCXGZpbwjZXYrD/sWDy+OPmgnF/PUCDjTY5ecXFyLDefG/LbUqefvvz2qg3lB4/9QjqMOPDxG0WnnurTmMtDC7+V5Jtr3ln2q4FHk3DWNnO+jtWDrZbOz9W89rWv23zbt91ouKsncVV13GNyY/nO9ccdbnh0cm8O+KUzXi35zTawZ1w1TNipLX/j6fjQGS8mzsUrTwu3eWGfHn6bNNyZk7zo2c984dKVq7UQpzjv6vcz2mojl6FAmkBdSSITkQogyfz1isPGuEaQPuuss8bzDuTo+SO9iyycExE84YkD00IJG5ZcvILj95quc53rjL+q9YNmPm7N7uyzlzeVcIHhiub/onG2KP2jkA3jnoK9eJqNw/6iyOyntnAT53ibTDF/7/cevf23nm/a5rX8HZdFhCu9WjY35ZovjiQ8MejMS3V3josaNaf8Zn5idLWefWGzay6dV0PH/Eh8+a5x2RgTM0588MI3TnRznsbDV4cZl7981nUIlx+stc+Bj3lUmJwq0LoAwOj0SM4FiEiLpgKE7Y9C3vCGvxuTXNEjxzdhf6LCx0bATZOwpnBiefPwtre9zXYz3HC8IaaIpLtWn+Ks4MWGaXPYDO94xzu293LPHb91C9MC8RCg3Hx+6ERkPRnqAKu60KujvsnzO7vXv/4N9x6CdA/Br8anuVF/Uo1xrja4z/nyK968wOCSLnT4VTvjfIg6wqTng7fmWA1xEY8+ocMHBsxyp1djOsKvtTQGtjd0bMSwBsONLx1c49UhX+Ps6OYa0B/YFAYYBuqclJxjxUXmaEVHBglEZ3nrW986fgvpYx/7yCAClyDFJ3Lr+DPG0Y7FdEUlCmwSJW2i/M3sGWecsTfpFVBxKp4P2s2cK3pFxcuYFwrucpe7bOTjnI+4fejtaBzTlbvz8tUbFy9c+habfPz+6r3vfd/xkqx88Ve3atfClX9jMAidGMbnRSJ/Io5x8ddznm8Ldzhsb6wDHDR+9OVGJ1719SJLOfKnh0uKO062N+yqP76H4cJY+x4Nl06LB+x1nY766lMOkiy5CmghzIWllyA9PwVKjGlPetKT9q5wktwlcNYyT9BaN5+3kNjHwa/1iesneHDAGzeFYW8hOPbqShsChzYL/IoGF2/vtfgTGl//7CMXh+Uz8+sYTjLnW73FNo4X22qp3m9605vGX3LFic4xn+rPpxjlKdcWYHniIE75wgmPP19N3dhUu7iLqRF+3WuyTeLUw+94scEJPl8tiTMb4/LOLz7FVfd82dPT5bvWtRblKp/qWGz9gUs5oIJTAuBkTIuIQBUWifzokUxnXDOuOH5J3DlMBYEv4cb0F0dwaXG6u77BDW4w/gzlS7/0S/fGw694JhJfsbcpjp5Ow1OuFS5+eHtu4t35q1/96uMfTLuHCv+wfq7vbBO2MbHxagL5GCNeqPAjZ715J271VFN+aup5Tj56cyDP5saY3CxWvfMeio1AR27aSDCrExVOOMPlLy7BxTjudM75NZ6fixERs/zYkPyNm09943pctXCNiYfHvK7Klb4Y7DofBztuLvTwSREQQUxDVCACcEl+IYUE4aMA84aIJL3H4694xSs2P/7jP76XYInSE7GOR0qcbfErou8S4AHbr1r4fwzvm8yF5Ycbzuy6ghkn6eRtITRRdCZCLBuOn6LDecQjHjF+bf3cc5eX/bLlyydZ59x4Pf2uOhhPdzT9HCvMuefbfLbI6X3y9o53vOPobbbEvKmxz1qxh189rIlqrb7lqhenRW+9xF2vvq2nFnWY/OiKIyafZPYtZjp9fOHOGwKehhM+6arlHAPOgYdPjAQjDJEFpDD1xjVj7C0KAStygejpeiPmZS972YEER5AjN/nMY7uO2SkMXhLDw5hefPFcebxjfuaZZ46XZZsU/Nk2mezpjGmkosOv6BU0vSuzGOJbFHD8de/Nb37zUQd5s8GJZNP5GDzkJh671DPPw/S7xucxeeGn4aUWuPoh5p/+6Z8e33vxapuce6O2exK1KYd8ndPDbV5gumjQVXscnMthvV6Mi0faEMZw1BN+xVT31mj14i8PPq1DY+n1bQhcE/hzjMb3LbYjAieAkAQC0GNnAZMC0QFOZ1xTpLPPXj75CMNr/klEnLM9XoEj2ZJxLI6eGId3pzvdafxLjuLJyZgJctx5RecTToWt6DDFZGMyq4NxYoL4svGL6Ne+9rUHHwsFRrm1YBav47stx3IKK+9j6bObe/OpmSv1wBtXzSZ48YtfPP5K2I9Ww5efuOyqlxpodPwSenmWqxgwSNxtFnZqk04PX335OmejJc2bc7Y15+pPz3fehGxg4QobH5yNH0sOPKfgCFwgx5rHpkD9+ck7ti9J+myTlx4FVGAJS1JA5+TSl/bvNcuv0tH59t1b3vKWvUJEqmJ1fqxeQviRFjIeBJZCXve6193c6la3GmN4i0/4aRU8v6Hc3igsnTzo4JOOYXlooWdDFNxEeMfZn7e4x7A51Mwiw9fFhM+J5LrmNoJNN8fST6YHDi1inM0TbnJ2LG/nFq3/zzjzzIdu/1jyt8c4gOrGtuPqqk7V3kWldTNzZJPdvDD5sYOJC13zIy59C97xvOjpCU50+MBynPDVYMY3XZyc0898D2yKDBgp0P9f3L3HWrtV9R1fKiKFWm7SRCq3qNiosRKuNgFOQSCiAppCNIhCjAoRpIjBSlRODYHGGDHUaIx/aKL1EkQDRgWL5YBYTSOYaIxFsRI0Em/YalAOovT5zPV+3z32c9be+z3n2HYkc83nmWOM3/iNMed81n0tju5aX//6168/4vA/zyY4O3oCUHCB9c7pFLqxyC2H7WaSb+yqPh/4CgnfJMCmu899jk9+FW+KwmlsW/T0fGZxLJpygk1MNLt0FVdMeBaZlxrxuemmmw6PfOQjD7fccsvSha3HWfv/KdUAB5z2tbCB2bzzne86/OZv/ua6wMjT+zc2OR8PHa0PNdHUyXgbgm4v9HD58pkCl6grrOrOjg/fxqeOj5qzE9NcOC++eXFuLcgzYZ+fMZj7ebnNfQkHAuz7vu/71uNMd6uuIAIBBaTXiB6wJCoYf+OStpGQTvLr/EZ7BWpxwYiHiXP8jGc8Y/1SYTmwcRXHid/kICZ9hU83i4S3mPwVli4xJq4nd3T8TaznFs6zVzPHdzTnq/yu0sdXz7ZayEud5KgGcsNVTu9///sPv/M7/2O5Gp8PK6tBCwkOH62FPXV8xbEe+OYPnA/BSUuHJx1sY9VzGW839HFV9+YOBpGTmM75EljEOGwYdPks5bWbs1neBlrUAH7kR35kNQ8FNshtlx/fqURA0gWB41xBBCgIYgKzdyWtAMb2wr9C7nX782kHK1z/QfekJz1pmeOAnwK4+snBVYrw55feOXvFZ59UdHlpCT91Mtl633MgxuXqr758lkrMxhR/8g5r37OJH477Wl2l3+Ptz+WJt9wcW6gt5BaRcXn80R/94XJXlxYR22pHiU8LcNaXjp36TFz14EOqHw5dQI3zE49tG0KfpNcbx5c4J82bHOCSbHGJA7+4ZLOMt5uzaNsJIAD+ZOV1r3vd+m9mDxtKng5oC7Fd6LzCSbYk4CGCKNuIF/yO9DDCEQc3HD2m955B3OjcS4nvw4FxL6bJZItXeSgUO3zliX+6/MvTuA1HmkCxbJJHP/ox66Vg3OjwmBMQh31/mQ3dVfo93qlzdZEXMVc473O0mP3zklw9h3RRU2M14K/JS52M2SwtTrjVUG+ztA74GYNPpg8dgauxo5/j9G00mPNiRScfQjex1W1ymvpizdqe2xQcKf2Rnw+/HT/LcySJXOAdKyhRVGMloncuYIlluxx2N+xrqcSabY6XSL1C2RAWpHjGPSeSfBPOHydiMvEx0ezFTmwW/nw1Oue46Gv7ovOHeeutH9q+Kfdv1+RN/vO4WPXp9jXY68WeXNPr975h1rMpjzCaN+OEbTjyUyeLurrRE/bq5Jy+mtOpgdqT7oUcV2dzZbPBnIuTDV96HFzlq7Fz9jao41ObECZfPnAJ28SGoYsTXbjyEDs5ewayjVACf/vb374SrxjALpsQYAJUtMDrJ7nGTvVX+dM3sS12yeDnXWvFqOgVYGLi4arN11Xeef74KBx7volzTV00vvR8NTr98WHER7Z7pXuuj6ErfvcQrrSw1ZPtXibOXtf5Kb909bicknyv0scjnnLd+1QHNtWBjXM681ON9r5qrRlnw4e0tlrUs/7pYdsoYdbjTAdXnRsPu4uc8y5ybLJrPc2Y5+4pNnob0cP2cenf25yOEy5YjiuDazcB67eltVr6AjpvQtLdSH+Z/9Q5Lnn/AqqouErQoszWGHHlqzjxyF/xCF/FM2mJosMm9MWVWxMtRo9hbTg/dkzPPuxZCxjxgzt1ztPr6fZ6NhfJZbh8LtKLoR7VZH9FlqNasJNXtYibGoWRTjx+6qQO6jrnhp5PNeInfnlXX32bjU0iJk7sG49Pcdma04lrjF7L3hg5m/nj+XIUnHEgEbpmcq6ojelnsZ3vgxm7TK7yh4eTHifHuCqMu3GFtTAVIGErlyaTHeFfEW0WNi3qySOdMZO5lzaLmMcvHB0L7bNRPqfEDy/66jHxHTce9tQ3diP93u8q3L1eDDVNJp56yZVe3aod2+prjM/EEIOv1qJOP3Vw1H/PSUxj1T5f9nTmFS59a5Y9nXM6rVz09ObE8dTBJGcV2E6AJJIgJpPz1GVz+JjNXjsh++ROmFw6dJF/4/WBKKg2Jysd7vLxHILwzc6iV9iuXhWPXRtJ4fiakIoKMz0sNnBnoY2ZnDYbzP9Xsq/PPu5FeuP7uZanJje5VjuYLXh+xq2XFu6skbEWdrH1XXRcrOCzSw873Ll4jVnUOBkXkxSXfvrCJcanzvjULaPt5tw9hSQAIypQwMY4A9zLjY7t/S47P4XJHgecmhi8mizHFSdsthYlv4oOu0L0mH/q4BBF5w9T4afAgKs30S2ScOlaSPD2+UwOe92M4/gq/d7+Rnwuw7QG6Jt/OcmF9ArUOtlu1KcrrjpMXMfVSP2q4an67ueNL9x45Luvr/E2WmsXJ00cLZ84T1zzFudpd+6eIsL6HATgyKm27cPj84htfC8FmeP5zbGLji/zhyN5PdFn/xd/8RfnIPGekyKn8mBIx8aEpCt/MSpyC55v4/wIXfo1sN1YQH/zNx9cL2s7hu8iM2Ozda4l1aic9vrsruonZrZhO79Kz0YdPuETjr8pVa4t3PgZ15xbnHwcJ3RiGa9GYRlvbixqfmpL9OrGhl8bIlw6Nnsde/hw6flp8eV/ilO4sz93CZTAMeDZl/sFB4aMIIKfkhV8+wL/nZGLsCemOBo+uMXPO+54dt4V7NRzCK8EybOPSecnjqKGbSGINaWiz3sIetz/7u+OP/52t7v9k/UJAOPiwKGP+z7PYuj3OhjkMt3R4vSCT6e/CHvatLj9Dx7ucVZX5+nVCJ46GCN6Y9WIz1yYzs0LvZpUl3z1cM3HrC9MPPjGobmh02C7+LBzHCeY9DD5F9c4YU+K4fjcPUUBI+DuEknjSALmfPjodlU4bE+qRvvoP5xfPMATPrXGxJit8VN9vno++EhOXwH/4A/+55HbBqDo7OYTt4qkMHDozuIfX80oV7ZNJj7FbbKbMOPp08H1uSFxYOBHHJN81sm4Ka+L9MZbdP483tT5HxDH+q0US9jtMRqrBmJZOHqS3n+H+Nchv1by0If+y63GanT+C0TycVHhM2u0gLabagh/6sXiq+FR/Djw93C2uaUn4hiDW03V3xjhD8/HbeJUrZfBdhNnF0i47BLH2uRxblNU9I9+9B+2Pyi/53oIwFmQdmFgs59B5vj+eAaeuhv1V4gmNn+YFuT73veH6zM7eCqgDU0XtuMms4KHsdV08zkWns6GI/nq4SpuhaUPXzyCm1r99E+//vpkVVO+4S3j3c1lukxxYFeDKZ6+ycbJsbiOtaQLAn8+6umYTXXl++mf/unrS1r81EJ9Cds2v/EWXwtUHeASumLTG6c3blGnYwsXNxzg4jC5saGfL1iwIfioC79eDFmK7QZu60FM59WFjfNTcm5TMELewwoLSF/iFQ3IPqFTwJeN3Rn/ilHR8HLs+xq+B+C4j1/gEG/FIfwr/BrYbmwIRSfsa9XDZMJtUrJlT+dcr/Dezb3llrctezHlWmOfNKYX56IJyl5v0nHAhdigrpDlCAMeCXOO8cUxvblVD3NuccEz71/5lV+5vo9CT6deRG5izUVdHnJVB3jixKNYs/5s4OAmF7UTp/ryoYcRLg77eeM7Nym/4sKmg9tGrE7sjGuED/vk3Kag1PwnNnF3BlgDnD7nCdTYZf2d9Q9b3Jox3Hwa9pbtI9smVpwSplfYFm3FNk5uvfXslwHnZB+1xyuR4tOZTHHFIz70B9dk9qHHN7/5zev7IziwE4/NFLo7IhYsLnGwCC0U+DCb9LnQisOnRUJP+DjW5Affz5n6xRD2pJytheK2FsJRaxyMp+PL3nj82lx0iRz405VD9eGHM6GHt9eJ1yaMM17NOb993DhlDz9cx+c2hQFF8ElP3222wAQlFWCdbDcTsLHb099R/3jMBYCz8Z/92Tdsv+z3+xsNr06cXYEVvodTM3nF6T/Z7na34xPG9Pi1seAXg15smMSEsBVfe8Mb3rAmkp3awaCP73K6gzdyENcCxp2IAVtsvbhxxLm4cUiPl4VjvF9I9F1zv3oS9uzhWA/sSTjuPaovXlPYioEb3/g5p5v1lYdxuMQG5au+fEk6fjYLDAu+HOnD1ct/v375yYstfZgrwLWb44q/dlJhP/MzP/Pw+Mc/7vDGN/7s0nAWJADHd0bujL+ClAwcCYbnP7z9Y9J3f/d3r0K1cOdVvhzoYClqhSsndaCHO/UV32Qpbq9ewdTe8Y53rCfZ4bAzbmJhnpK4n9Ltx+IO63nPe95azPzhW0Tbul0SHyf08vTnix//8WeP5dnI20b7lE95wPariQ9Zf945a+EYrhqzk//k26ZhZ05IHNVHXLWfmPQwmhv1zTf8fPnREz58YdKzpS9eNnDVZ84bHftw+dDnW06d3+bXPAAQn5T96u27zn/+53++gkQ4gKPV8TawM93pBcDuzOYM4bb+Z7p5xM5ESEjiODmPmyIp2g/8wA9sP2/zr7diH5/UeRVlCl/Fg2fS9MYSGJrJmpNCLx5bPvFg95d/+ZeH5zzn2Yff+I3fWHyMwcDNsStqV9JTNSj2Zb1J9TDNz2a+613vuj6xcsGrK7mYRBzjemNzcdLT8aXDLT8PlWy06mBDkHAc2yzqwE5+dM47hgGvq3z1ZBMntntOLiT0+MzaN0f50sEXV6NvQxjHK6EnsOnE1CfpYZAzzXaCOEHcDw5///d//8GPibXYcl5Gd+DmzvrPRBSHzDG8yWtf+9rtV83/19JV2HT8FM+EtCH4KIhm4bHhl2/6fJ3nK76PNLuH8lJsC1Mt+YsL03FF57+Xy3TZWpwm1n8ImhM+Fh9eFoHziWNcbHXfL7506sB31rHnR+HKAS4bWDAJX2KM3rnadgGoFvTZVl/ncaLXumdtgxojsHGAHVZ8y5e+mrchwjVuExPzkC8fNjDCYXNuU0ScAWPfN/ZQxE9OPuYxj7le+ICAA1Y8YwUD22vojunyEYMP2/z1bUikIllvjLDJX0HhJHF2/u53v3vj/PLrfDxv2EKsosJg26LKX9+k7BewOHR6BacnzjXfYf+xH/uxhWvi5COGuuhnrupwSqoPnWO4hL9mrPxdqOjjaxE1d3zExSP7+NIReosTbrnGSw9XT4c7bOcaTLHzpYsfXLryFYtOI14pI2o4+cLlC5tvc5MfzBY1nUbiRC9fF42JywauBotez4+I1Xljxs89fCohCscKp0dCgdrlCCJBjGuEni0S9AIerxb+CvfD6xf78mOvCMjwmaTo+JL9+Bq84AZXBVd8Vzu/EGhT3+9+91uxvDElJk5sHeOu7xwXLaGTT4KXRcgeN0+sv/mbv/larc7sstffaC7wNPYtNnHCcOwFkO/5ntcebrrppuv82WZnoh2bIzhyJcbozJGc+Mw82YrNT28BsY+TY37NX7j0YdtMMNmSejb82Jkf446zcSxu975zYbcG2fKFNesJ1xgfcxkX9vjCpZPPlHgbwydM52ezv51MBSfGACPZBtBbKPQVIbLGkfFeQb4V/OlPf/rhJ3/yJ8VdAoewLzYcUr9OtpswOr+oF9+EKcav/uqvrn9jfclLXrLejPJNQjo28VbECn/3ux9/zeOjHz3ywcG9TOdN2rbEtq9rfmD97ZbflD1yPbvXwq18HO9zMXZK8qk/xj9uPrU07k3VBz3oQWuRnfE5Tiz7Fr38tIRvc2MsPMf8NDVjxy8O+onbnPIj6W0IYk1oJFzzq1mYjbFx3GYRc3Lij68mRmslXulh8KN3XGy4fI3ny4eYcy37iUl/ZO9ok5SMC1aBnEtM4RTeeMFa1AIhoqefvrCf/exnX78CTWKw+U0O6+TaTbzm2Knj7Jo4E/Urv/Ir6xfCf/RH//PaEB7v4kXkIR8FdM9CFBXOzBWeq5RxXL3K5SdAf+iHfmjxhiGfJB6d32jPr0mtPnyLS+f7376Pjo/60xVbDTUc6SaWMfm2gCYnuvmQqXmFS6eHK5aNCIMYV6ds6PbSJo1P9WXHtyv93pefmGLR8ROHiKvm9HDjix8xzp8PX+NiEX2cYJdL2Gxu8/DJYMV0XNKcHc/iCBaYY3960kbg672CRBK33vo327ulX3X47d/+7UUMuYhJtKTCzPei8fT1YovDXpNH/N1zPfaxjzs897lfdXjYwx52bdEcN4fCiekeodzlyRe/cPykpIdLP/iDP7h09IQtDDmQ+K6T7WafT+On+nyrR5NWHj/8wz98eOITn3QbV4tLPfFo008si945fTmKgZteDjYamfruASy8cAvOR1z2XTToynfWkL84YZsnOeHTop64fPGlyye9mPT48Cdhh4tPfNPFBz91nXGzgXV2/7qdFJwzR6BNCidFb6yCA5Ecn+MH1eBYlDRnOv53v/s9Dk9+8pPXy710EjKuwW3i6abgMuNN3Txuk7ENzz2AiVWst7zlv2x/kfXfD/69yIsID3vYw9d/enucrkD+sqs8xXTsXuHXfu3XDr/+6+9cvjYGW/gwHYvhVSBje4FzozLzLF8c4vLIRz5qvRpozFy1MKo/Lsbz5UenkRb95KNm5Jj/2ZPi6gDLGmgdsJ24La5iprdwCdx8ceNLB1+96IlxGPiUV/VMx46vfKyd9MZh07E1Xkw6Uly6U3r+ybl7ishQNhmMjXvYoagVPoAmhI2r8ZbrRjDt2c+OdCVxL/HVX/289VVN5Pg3ybOwHUvmRqWieuwK16IVF0Y4iqXwx1yOnwV6yEMesn4N5N73vteaGH/L+973vnf9VKif+5FbHOFqcGA6VqP44lqsG+WdHYx8HYupiWUReKn5qU996mZzXLx04lsMaiknYwQnx2oAS00mPht5lYt57ZiOH3+Y4jvmH6/ueU49gd3jwkvgigMXZyLnuMmFyLcxevnQ4eGYPqlmXmDxnDG+9Gzp5z0ePTGuldca3G7ObQqDM3nnFpAxQPskmhCBFdWVdqvbEq/0+Gl6wk8roZe+9CXrYUiP72ErZILklJKeY6eO2eHhqq1oFae4cMuFrQ8CsjkeH1+2dc5ObsblRvg5p6cTx9iUJoDdXmCeGp92/KuDerEXyz2RJ9g/8zM/c/jkT/7kjcNxAfNtocwPQRo3b3zFxTVu1YAffLrmlR8fjbDVqokx/GDDC9d4YvHxp9MSsfjp+cLUE2Ok9YBPuqXYbsSFPTcTHV/xYMOs5UfHV7NhyilfvbEpt9kUKQULDEkJtrjYpEN+nwS7uePZTN/f+713rw+d+bZc4/o9ubjcaJ9/Rb5Rv+z4n/I1nu4yvRwuE75xrM9+j7vXs3vCE56wvRz7mvUzOupP+J0thOMia5HAsIhIdWZvATk3b1pCZ5w/OcM9xskPbhsi3sa8iSkenXFjmmPrAW4XK2MtfDHdg4iHjz6JD1/Y8BIY6sCGlGv6WYf4puNbw2Pijgc6mR8LwIEgGPkc6dr1bYjskWxD8G28jWG3e0nR/yHAIHzm5KzBf+SbuF8GG9dTNnRX6U/5zbGLOExcNhfZ3XLLLYcXvvBF64panU32XERqqqm3mlow8JtD9edrcdLTtaiMW5zpw6XHySIzJibha1wPF2bn4pUHPDbpjccnvnBPLfr40vOLq/iO+cPebwjj4sqxTcqHsKcvnzgftdtDrg72PUfEZ9E5V7h9EhEWKF+E2CXGCQzvWXhzreLxu7MCvxgTC7fbK3xqp3DT6U/pL4vHJ5l85/jUh+9i89+2f4TyZqGHiB4y5WOBqKs6GmveWnzwLPh0+dW3iPjtnyfAtjjZmk+Y4eImZgswvXh03UPkO9cDH42dtULYOSd0hA9eeBQXX9j89hsCn9ZTXIsLu5jlvoKMm5ObgnFJ5AhMQ0aPjID0yJIK14RMXxPCl4/HyN5lfuYzn7muHiYB5v8NicPtwb7K5yr9RbH4Td+rct7rbQI19p2Nl73sZeude4/DE4tEfdV/xqGnI3Tpwzd/zY2rOQzSYqe3kPjtpSt59wL5soPJDxf6Keks1mLiw1YPV3y6fMOGOfnyaRMY1+C20WbcNimdJjdt1uvcpqhIQCIQICKuTgrjCcvetsmJTDuTP1+BSUSdf8mXfMn67gb9Pt4yvpM3M9E7CfWP7j7rdwr8lN6FhZj0n//5n18PpdiZaIuo2ldLOnVWX21/RYU1Hy5ZfDNu2HobEv7ExgO+cesiXRwtVPPdJmw+cKFzTs/PsSYWHVzjrSPnRJ4azPLhwy4/dvnq6Qm+jtOtwRM35zbFCf0CkUQkASKPhADGBSORDIde0ZFVcHq+koLjl62N8Tf+jykTDw/tjshVflfpT8W8yMd47ZSfnFyQ1NSieNvbbjm8/OUvX986tLjUUl2T5kbfwkyfDiZf8+m4urWRjPMl8dZ3xaXrSs4Grvk1p3zpiklvfOrECze92DhNXHb82NJpe9njTj2+9Htc3LTJ4ayCE+HaMcM2BFL7x5rMFIANHXB2CkNsBhjGkNE7N3l/+qd/uv7O95d+6ZduQ2o534kbcZKZbGMX9fziyG/ve5X+Itw5vsekC3fanTpWTxvCYlNPE/1zP/dz6y/FXGDoE3PQOVuLd8ZuUVt49FPnuAXYom5O9eabzdww4hprvRQzPnQaf+uEXt756a0l+vJbyu0mX5zlYf2ElU0X2hb5nEd1gCumRvb+zpNzmyKSKSPjHFF6QYkgSBJEIxEpRUVmFo4P+au/+t/r30vf+MY3Xi/iJLWM7uDNPodgbgT/Il8YdFfpi3VRfyMcLvI1Lr56qrFFYHF42OrC8upX/8frP8DGVv019prY/Js3GObNOV3zalHD5gO/nOkdwzTv9PNKDqMNwZaOvXExHOOqb72UE3u+Gl2+cdPjRJfw0ejwwWvqxdGqg+PJN30xYCUn36cokRwqbE7GJUDsvMgVCEkbIpJs+LD74z/+48MrX/kfDm9605tXMsY0ePrLBD7B744I/1O+8aa7TC+Hy4RvHOuz3+NO/V6Xz76f+FMHS+2+6Iuetr774hfP3aP0ZlUXJz4WlzzMTVfNsJo3WPT7+eh9iPzELQ+LzxzSWS9TJ36LGqaWn5z48ceX7HXV3SadApcf+9ba5Fw+p3LFJz996xP+bR+YbYOMaoJIMpFAC5iuCe0YScdsYPAtIJJ+LeIXfuFN1wvITnJ87oyIFZeLcC7T012lvwi3cRxOyR73IrtTvnOMX74T07Ea+7CizfCKV7xi+971p6yLjqujOTAv+Tjf19scaC3qGZcff4syv3q61gTfOMaTH24WprhxgO/YmtB37zD1/Oj57R+6hysmLvziBHtu/uLixK71Nu3PHQNIJiFjQABOAYgsoZt648gokiQiI6B3r72+Pn/tApZiaZPUjDeP8dtzpG8Cpu1Vx3xqp3DT6U/pL8Pnk5zim05/lX7aTtyO86//xV/8xcNrXvOa9Z1xC625sni6UO3rbR4sMnNgzvTNB1x6vi3AqeNHny//uLVZYEzcqefrHDa7dHBtCFznwx714KORuO7jypsObpjs4eIVX2PVzjE5eU9BAWiCCdKujcDU2wwCeg9CwISNT5p+13d91/raJhxXHLbsSi7729tPDjfqe5XPVfqL4uz99sW+Sn8R7mXjE1M91dfLtep78803r//7M+bldHWfiwQ/9ad3vF98xrqSW5xkzm0LDCZf9vFJZ620XtLr6cWGy5/ka9HS84sTjmLnRze58A+X7cQNmy+dONM3XuzIyecUFNMQeYDGkERoiiTa1ZF1XkK+kONvhxFB6kMfOk7QjAP79kpFzO9GMa7yu0pfvH0//U5xuUq/x7vqPLyzWMf6qrHaf97nfd7he7/3e9eHCc2RTZEPbHPaVdPCnPMKcy5AeMb4T505pZu4LWpjdC3AeNJr4tFP8fCPDtc2YnGtQzrndPFNb83JPU7h8iP0fOQap2xmf3ZJH6MFMSQIUGP75Ol7uISkxg5xtn/yJ39y8FXQW7bP7BiXMClZuAjSdbVYBjdwMyeBv3ZH5Cq/q/SnYt4Rn1M4NzpWLSxidfSE1Ry8853vXP9yazF4OJsdfs2pMQulBSYmPZ/mp4XLNh18Pm20cubX4ju1XtqIeIZbnjDFMN56gBs2XzFP4Z7iWy7WMD1suJdtCD4X3lNQAkMUKWQmUXo6hZs7s53qlYpv+ZZvWc8hkGEHg61vuLGryHBMGpsbEX5JBev8sj6/i3yu0l+GTVc+e7tw5/hFHKbNVccTF97xF8iPb46qNf0DHvCA7ZW+N60fPIDHTp3Vn+wXSXpzMud1GW83LWr4Lm5xgKfxI3RsSLnSNe/TFx82LrA29HGNHDeDYz4WteP4hgmfP2zx6ONUnmxhTE6TV/bGyG3uKWYwQIA5tSE4OZ/FacfzRZy8+tWvXpMBA9kKhPzEo/c/192LLOdLbvYJZDp5N7bvL/JlR3eVfo+3P7+Kw2X4e6xT5xf5i6vNxaHe5uJ973vfusdQ5/jpndM3X3yJeZ1X+njwoWPHp6u1cc2YRT11+Z7ClQu/BLY11hg9LOfWjLgWdUKv8dMcpw+DLV/n7tFag87lX02mPZ9zm4ISOEHCuUAFAzJ1gqTLFwmvgPzET/zEWuj0H/mIu2IfBTERZw/JYMHwpg67j/nYLf7Wrv+X3u4/9XBrMktK4eLcQqBrktPpNRMO/2O3i9hH/n67+mz93//Ddrd8lyP2vkA4EuNNkp5YBF25nMPPP9vqgtsTnvDE9Rj/8z//86/bydsFoTxwj6ueGOMf9hrcbpw3xhatD3/YR0BchLxZ9sHV+1UT+BaPWGrTQ5Qw4PvBaNIrh+vk2g1fPOTLd8Y17ok8XfUofzprQutFmOlrHB/2c+EKa1yNYeDEj11iLtngzpewUQvj1lW4xorLLk7ZG0vOvfrUJKQEqDXuGBEFqjjZshGI/lWvetV1H7bHSTr7baJ8bk8PX8wm1gfUmuA4OrfI2BEJVwj+9CbGJsBVIevp7vJx55/07fmxbXHCw8GEmThYxvAL1+Khf8j2ddcXvvCFh6c85Snr4cGjH/3o9XDGy9N83VOuzToCwmqxiNkGHCa3OZSr37e1QPk7tjD+7M/+bNnCUxt4pAWBo/j4qiWpdywnvvQEdkLHX93DTQefXs83v3qY4orVok8XLr5xSQefn7hwmxPjbM2TvGHiRcpVTHp2dBNzGW435zZFgwFwmE4AEUGiArHVBDFx73//+1dDmh17JEjJFWffwzkn2z8mkTj4Dq4FBM8ihh9HxdNw1IyLp4eLh8erisVue3q5xop5FTc8+MHROuenyReWjWJC1cfm+MIv/ML1Me9+kE2NLFa/uuj73295y1uuT/DiNWouD5iw4rkCX3AjV/jiEpzkfP/733/dC8BXs5kr3GpmEZH0dC3OWc9ltN2YhxZY3OMZrlqJSW8MDoHL17hG0sWnmPFZRtsNPzbGYZPpqwYWfBuCLbuZz9wQkxesk5uCYhJpISjyDMYOIL3AJsN7EhWK/kj27J1tY7dHSpaPq3xXQYWUqC/yu/J6MulhAh44NQktYPnQEfxw3ZbD4meCVr67PbmMx03YeKiFhxviWHh0uBp/6EMfenjSk550eNrTnrZ+LSQOTYxFzucVr7h55WBj0PHVw4Kr1o7zH1ROHjYX8H1AsHuyRzziEWtjwZzCXkx9C2jOewsXJ5hzLtRQo5u4bPa4bIzlLye+zuESOYo9ceMyffFlW31mPsZd9OTShcGY+IQvoQ+bnsTN8fkqGdlkGnBCVI9IAY6Wx9tsLBZ6DQGBYW31uH2yu4fIuaSahM/5nH+13iX3kYZnPOMZh9///fesXyB8wxveuH4tXWHY4qew8rj3ve+9vpwDi/7vtgnyfOJGBJarkHspeXVl9UqbQn/u537u4bnPfe72NwaPP3zSJ33SshFbHUyWP4q8613Pfh3jwQ9+0PqksLr5UQIYYuCGqzrytYj0crhM6C0ysfzQgUX9WZ/1Wau1+MLQ088NeEqHA15zTcxFjS9uSWtBz5eehK1+cmtuGofBB7ZYzvlPX3yrJ04JHwJbnuUqTvFdTGE6b4zPzMs5+bibN1lHJ24QFjDiEpkgdIjSR8SxCbZQCu6/ESQzfU+E2xg26ecfthWfTxN0fNL6nw4+/EaPmz8fuemmmw5f/MVPW//bZlxcTVEU2UMwvMprTeiIe5LXtUF48tRbuPJxfK973evwZV/2ZeuXx20Mi1xdxGNjcnDoMa4xjY3F657lAx/4wOE973nPmlicwnYsBiz9ZcJWyVsn7AAAEwxJREFUXnxtXL9n9dKXvvTwiEc88rpvuPizVc/mLh1edGLSxYGertyaC+PJKVy6fMvFHORnzHEPiatb+nzFFVOborb44mkdEOetP7hi8Gssf9haHIyfvKegYARYQMEQnWIcSb3Cpff41Q8T+L8GelIB4F0qJ+4h8EjgwPSQ6Vu/9VsP973v/c4lY25uvfVD28/A3P/w3Oc+7/CsZz1z/XbT7/7u7x7e+973rh9h8xksb2q1EORWHrsUC3u9r/A4yRcfi0CuNoL/jfjwh49vXN71rme/qAif/lj46miSfPT7Q9uH9x64fSfC967/9vDLv/z2tYHnQzJxr6zdxrJFZPLx88cuN20XCdLEt4BwwX8uMGNtYP50YcLAofXAV+2IMXZ8CZ1GYNITdbBoYRujC8PCbZ3p6TS45Q+Tb2I8O2NzQ4Tr3oOdejbG1hiZeGtgu7nwzTukJSloZCJJJxjCPYQQRAA2v/Vbv7W+amrBGDu+HHs2aQU/1c9JoIdX79hHF/womN8/8ttSEuUjFr5x0nuTMDz3XGw1z0E8yXVsMhQTdrFWwBM3sJrg1PIT9xu+4Ru2J9T/vuFVdItADKKGjsWA4RhnzRWd+J2sr/u65x/e+tb/uuzoLMzsr+IH0zzoPZH/mq/5mpW/OjX5LRK4+w3RxYF/F43qYsy9bBdAtai2bPi26OeGkBf+zQ0cXPKllydfFw4ydfiWf/OUjVz5sscLdrZsPIwk1igbPMPmqznHt3H2xxlzdE2AMiaMm0znHCWH6CwcXUW3yD71Uz/18E3f9E3LFxE6DXZ4/OEZY7MX43Ep1pOf/JRrG+JfbOZnxcVJE6MCHPEU6XiFguGJp8LiIKY8FdPxngdus8FjF+90xsSF5ZjAMsnpxChXPQw1pO8vwhxbpDff/IrDTdvVnQ0cEr5jYzDEYxOWnIzZYF7+9WPW7Ej9fB+CfSJ2NTSOR/nwpe9FhWLyNU7Y8ld7XKfgG5Y6wI8Pnx7auJKTdI7VkD/MNgS9RmdD4NOGwMc5nzYEP/bVTd+FAe7kIyY5tykCZQx8GWx9RCWBjPOICKKRNovF95znPOfwohe9aNnzURhF89i+BQFPLONiO4ZVsRHW+Hpp89u//duv3UOcPZdhD99E4jSFTuH473XFyF6+5dlY/d628b29czHFcyyfbPRi4GrCnDdh8LK7733ve/iO7/iO7QtDX3T91SN1kh8b9YCjh4WbesM09oIXvODw9V//9WuMrtY9Ik4zHj38fY3i3lUc1+Y8f75w8RA77BVgu4HZXJvjKXzo+cltL3PexBWrGrUO1QEvfTVPB3fOOZvmRiznWpgz/rlNMRWOOeQkqAJIHJEkYElKRIIWviugTfEVX/EV6/Ece/6uCF1RetzsKiQB/kQMRRAT7sMf/vDDt33btx0e/OCHbNrjPYQ4koTJrkXDn28FcOxnJvvfu/LR02l7ySas9MZna3z2JkVjh5P6JHhqxvZ82fz1X/tP7Ltsn1d60OGVr3zV9irWv1ncjR1/htRjei8puxCZWN+RsAltjE9cD+Ge//znX38YogZ4VA8LRezJqcVpLD0fwp+eP13jdMbkojdf+4VrLrX94uRbHRzHRx/+5LTfaBN3rkN2+Kq9Hp4xPY4E7tQVjy4bx2cztp1kxFHrXBIAJVhxgATEFllXLCR6bGjiv/M7v/PwpV/6pesVGiQriCubzcNGchY3X42I7fjpT3/awR+jePOLuPIQycMyGeIm/PDChx6+NgUuu/Kj43NqbPp1XO7l33lFhyPX8Olx6Z60q1t46ld9XTAce5PSJwOe+MQnrpqz7WpbHauzGvjFxa/92q9duVYbdmKqLV88qi88cfAyBoOkh6GGMKpfawLOrG++5csXdrjG+RLj2sRdims3cPnvNxMMXOM7OU1sdnyn4Ns9Fr3Y+ovk3KZgBIDM4iBJKmzFBazgEpm7NpIS8ITWD3d9+Zd/+UqWj4QUEp5z/sY0Ps4R9xmhb/zGl26v+f9zjBYHccQXV1+CxWQEg7SJHRtzRdXK0ThxfmrsqD27vcpOnVoIeCW4WQjyi286mLjRu+dUDzbG/TnLK1/5yu3J99etl5vVRU5s9Z74eh/CN+1sijkHMNh/6EN/u+614cFOYIjLDq8pxvnyMU8tMrkZk6feOX/inJgXDZc2cbZwmye+tXxxot9z4qfBbd3wYQtDXnSEL77xYoOv3rjG5zI5t6UEEqDiIYIokK4GBQNaEgXbB1JYfve85yeuj5Hbra973evWZ3H6ZCxsxWObuAL6d1aftO0eYhYUT7gaDiYVZ4k3mcbwIuzFEZ8dLGNTyjn7qbvRYzFm0fGpiYfTjBtf+BZRtvGW233uc5/1EzZeXvVzNv7K2YXGhvFKnJ8e9TzkKMersTni6xU3OosiTHZqpAbsmle8qg1fuplL9eGLJ12bKV9+BGbx6NirTbiOw1sO2425YTfnLR0MOcDlS/TG08nnoifrbPCJE39jCS6Tz7lNkZGeU8koEBIVkr4kTCY9Ya8J3kugHtp4aZTcfPPNi/hP/dRPrV/14MdfseB3/gVf8NTtneqXrQXBz0QoCL0rAm78SIniptHBapxNBSjxejoyz7M9ao636elO6bM1oWInceLfAppY8m4hyA12vNVvLlgXBxvD4mDreRhfb/4RvluY1bc4bYhj7Y4PncTuqgkjTvnDo49vuZRzfE/Vlw196yGf8u2CJO4eV53EptMSY3C0ODUGw9hch+GWj1z47nOl3+MUU39uU5QAB4CkiQ5cL3m9CSwJ50jpPV/g190nLOdwX/CC529/s/XY9XGMt771reuNL+M2z2d/9mcf/P3W4x73+PVxjEVguxGHjQLA77G0Yha/wpqUisNWo8PBInNeQR0nchfjKmG39+NjvPyds6nhKAfn+cuF9JBJbDriuZbjasafvrh85Tk3zXLcbuT5t3/rx5f/6fWc6eB1lccTdvHgGjNvelz1Cf2sIX1Ch5s1ATMJOz82ci0HdntOzQ+b/OGSco0Xm9ahuK2R9C6eYvKbvGAZ1y6Ss+yuWWQcCcEjqa+wEQlYEgpAT6a/V388J5DE3e52j+3NM3f7j11XfZ+q5eMzSTYGv2PRzx7/+odSC0HMNoEYCjCL3nMUOoIvvZzw49uY8zjrjWuOSf062W7oiHELT2zHYXdsnG11iFPYfOWCy6zR9HOsBjBbgMb4aqRxx+zIBz94/CjLPe7xz87pcdSO9T++lxBvfvz7+AvcWWP65rUNbIzIiU5zvF988YXfBVIeCT5sxFSLakSvfnDZ08HA2bm++ro40PENG6ZzecQpX7qOZw3jpL/NpgAMkKNgGnEOUKB90dgjyUYgLT+9cTtXkgobeYXykRC47BrPV9xwFaYEjRO4CkuKiUv+6fFtUtjSl2Mxpx+bKXRTxKpOcY8/PpqYTSZf+iZEHvyNaQk/nI3xTye+2u3rH+eZJ2y+4cBgZyO2QcUrbzFhy6mFGZ9w+dPxCZcNP/MjXvfe+ZZLtTJePo7nvPIn6eVZrhY9EVf86uBYqwblWVx8xU7YVn9jxUo/+zOvMVqAhgQWjNCVRPpJFJEC8tMkxEbhps4xXQnvccWsODNBcYvpmE4Lx5hFwMa4ApFZwGLTs5sSx3ymjq0Ck+kH23l6izOc4nZvJybd1MszX3WYtUgnpvHiV9v08+FJNmKqSxuRT2Jcjdm2+OjYaHDZ4Mt/1tei5mtcm1Id5Ac7LtnwYyMX2FPgimu8eaMPg1/55IurWNWBbTq+7On56vf1ZTPlHKPAGURiFmeSDKQdrzCICJoggaix7uYQhIkYvUkTa2LTw6WHGW6ToqdnBxcWibOYmvFwYdEXH6canI7jrjc+hU1j8GFV/HLZ14E9u2xx2MeCZaHAmhPGlw6242o4OfGjk+fkx4avVh3YzRrN+rKnDwNunFv0+fKD67z6snU+F3zzAjvZr5fG9eU6cXGKt0cbdPjsscNtvYTLF7fqwH/vm239uU1hsMJ0DAwooD1YSRivOAHTaYQeWTgtiIrHr6KzFT8dPzo+REJNiLEWEV2T4skiGw8V6NPBMt5kx4VeTHp9Mo8bi7ueHh8xjhv47Gqcfb1Y4vbwpXyMz/rCgkngx9VYLZ1ePuyqr3PHpHtKG6k6zLiwnasv7OrHd4/bGGy4OIcrfrXgB4fs+Yo184lT2HqL3r3dnIs40xG407c6iW1cyyc+cZo6WHxJ9utkuzm3KShLkgFQDcm5cOmOC+GMiDG+YfAjFr1EiJ4NkvSOm0SFRlpPJ15JhAujwlpg4TahJozku062G/4abE1MMXCtYNnq2Z6SacumfGDd5S7HGhmvyOzViVhEJJ1juZR3euNxLS91KNf04cq1GtY3N875krCqAbyJ6zy+4s8alitcNvzCXeDXbuQjJqyZJ3Wb1Hq4yHeuFf7iVgs1Pr68fzY3dDaLHibOjqfIFx/1nZzkwXaOdXxuUwCLTE6SrNgFQxBgRQ/MGD+NIIrQlCZzFoAeFly+EzdMMSRI9rhs+NLbLPyNEX6aSak4Pknal/nZTY75LedrN+VXXmzCFddxbzJmy6YN3MKd2HTOm8ziGZOHWHjNXOnS5ytX4lzsFp+YWjpYcMUl+/obixPbcI0n9PMewriYYovrmF/1NE7mvE5c40SufHFyzA9G+Tg3r8QYMVYu+xqGoRdPy49vfIwVJ6705zYF4wkwi8MJSFehSSQdezsXTsUTJH2TLQbbKRLw0EdhYJP8xG1C56tXfOjYmZR5NTBOcFG8OBn3bjoO/IjjCrkGLrjJDoYmB7zE9Q5zfOMDBl+28MsZHw0eX5JeH5e5IdKXiwVfnfiLofb6NqFxYgwnXHGYuPRqQ6+pP17EOamG1TcudI5xgu2FlHzoxO3eRdxypUv4siuXahQuPLpqn7467PmWaxdfMfMRE64G1zh7Uu/43MoUmDEnDhWHIRGI3vgMBJCPRe3Yri5JfnSS0Ix3BaMjCtqiDhtOuPQmxt2nscQxP7iKg9PkZbyFki/+j3vc4xZEueo1MeCUJ54w8Cfi4dI5HRubzCd56WHgROQa33jxgeF81ohdsehOLWz1xXOviztecNSwuHjg1HMti4SeLT/iGCe48TROH7YeX/psZq7qS9LBVAc9v/2GoFNnXOK0ALYbscwbX7rqBDtcseOTn5zlAdtxayK9vvqLqxHxppzbFCkAzqIiggRnxCYgHzpkkNwT5VtrMsOGx48+zIjCLS77CmOcn0afjl8TwiZcfuKS7H03wzf3+Coc24psonzsHb4Cuvrxg22ibPj4O+b7hO1Hzjx8glGM8lmBtxt4sOnpqgV9udA5hj9zgYvLrH0c+OCgyQU2XfpyM27hdg6LDVz4jvN1jgebNnj3AuGKWy7NzV4XZrnAJDNeuqXYbspnzhtdNeJL6OPrnF4u/OmqBR0xTk/yXScnbs5tikiXHPvIVABJIJMY19gZp89/6owhk44/vUniu79K0c3JaWHzZ8+PjZhwZ3H5Vfh5tcjGhnjWs561bEw6vOOrHh+/LQJfAvKrEHfb8F1ZPOn3XWoPz/yUjeJ7eOg3pG49fNqnPfTw4hf/uw3jeJWqDjNXY+VTHU7VkK76Vid+GowmM124erLXq8Gsr3Nxi+3jJPSuxtqsKczuMelIcfTZFnMZbDflyeaiuWFzqg573GrInpTLHpdfccNtrvnRaZOT8Yvk3HOKin2h8bb4EgFqCGj8JwY9kUTj9dOXfiaRjq1x+otkYhevmHsdPAvBR0pe/OIXrw/V/fiP//j68OLx7vz4EziuKBaE2GG6V1BYdq6aJugzPuMz1s9gPvCBD1z58eOjlScuTUobnz5pstjHN9/qEOasA51FToxPTGPTd+rzYS+n8uNjEeYnP+d7XHZJvDrXhycH+nLJJv3kNHXs8228vvE9bpzVN/98Zn33+cSFz5QLf7ggowLq95MiIIkkmxlg6tlNfWTzpSfFc7xPcPqbXHr+JN0+5tQ5ttj9jCdfi/htb3vb+u3bd7zjHdsPiP3V+hExxYUP0z0Nn+6OPX/wHfRHPepR6zsifnOqXCYfsUg6x/v6GRMjKZfG0+3rkL5cw60G9MWd9TXmnJ3cWyT5eXjoXkE8m797CLWYMS7iZfwyHdw473Odun2+8eO714Un54npPC71U28sXJhTLtwUOUzjGx3Lhz3ZBzVWMhF13vGpOHt7GFPy38c0XiGz8esic5ItEIveQ6Ds41IM4109LZIezhWP3T7PdKfGT42Vd7r8w04fJ302fKYeX1Ie5ZWdHGyKvUyM8mXDH9aMl28+p3Rs5ni209dxvMrd2N7W2JSJO8dPHV+FNX3O7sfn6HY8yU1VRBormf04Pd1FOMabsGwnZsf1l2FN/2lXIeJQvBZMehvCIvGvPzYLO6/WEBuGnTF2sGwI4yTs+jV4wQ2cYu5NTvkba/wqv70e3/IVKyx5OrYh1KFaGM/OQ0zCBi4JKz5rcHdTjN3w9djGT/k3Vr/3v+x8+sT1lD07+sts8vs/lGUXi7pU3RAAAAAASUVORK5CYII=;" parent="1" vertex="1">
          <mxGeometry x="740" y="-60" width="81.66" height="80" as="geometry" />
        </mxCell>
        <mxCell id="clFiod78sZzIFJFchtkz-18" value="" style="endArrow=classic;html=1;rounded=0;sketch=1;hachureGap=4;jiggle=2;curveFitting=1;fontFamily=Architects Daughter;fontSource=https%3A%2F%2Ffonts.googleapis.com%2Fcss%3Ffamily%3DArchitects%2BDaughter;" parent="1" source="clFiod78sZzIFJFchtkz-15" target="clFiod78sZzIFJFchtkz-17" edge="1">
          <mxGeometry width="50" height="50" relative="1" as="geometry">
            <mxPoint x="670" y="83" as="sourcePoint" />
            <mxPoint x="711" y="20" as="targetPoint" />
          </mxGeometry>
        </mxCell>
        <mxCell id="clFiod78sZzIFJFchtkz-19" value="" style="rounded=0;whiteSpace=wrap;html=1;hachureGap=4;fontFamily=Architects Daughter;fontSource=https%3A%2F%2Ffonts.googleapis.com%2Fcss%3Ffamily%3DArchitects%2BDaughter;fillColor=none;strokeColor=#6c8ebf;sketch=1;curveFitting=1;jiggle=2;shadow=0;glass=0;" parent="1" vertex="1">
          <mxGeometry x="515" y="150" width="120" height="60" as="geometry" />
        </mxCell>
        <mxCell id="clFiod78sZzIFJFchtkz-20" value="" style="rounded=0;whiteSpace=wrap;html=1;hachureGap=4;fontFamily=Architects Daughter;fontSource=https%3A%2F%2Ffonts.googleapis.com%2Fcss%3Ffamily%3DArchitects%2BDaughter;fillColor=none;strokeColor=#d79b00;sketch=1;curveFitting=1;jiggle=2;fillStyle=dashed;" parent="1" vertex="1">
          <mxGeometry x="585" y="265" width="120" height="60" as="geometry" />
        </mxCell>
        <mxCell id="clFiod78sZzIFJFchtkz-21" value="BuzzerProcessor" style="text;html=1;align=center;verticalAlign=middle;whiteSpace=wrap;rounded=0;fontFamily=Architects Daughter;fontSource=https%3A%2F%2Ffonts.googleapis.com%2Fcss%3Ffamily%3DArchitects%2BDaughter;" parent="1" vertex="1">
          <mxGeometry x="750.83" y="-100" width="60" height="30" as="geometry" />
        </mxCell>
        <mxCell id="clFiod78sZzIFJFchtkz-23" value="QuestionBuzzerWon" style="rounded=0;whiteSpace=wrap;html=1;hachureGap=4;fontFamily=Architects Daughter;fontSource=https%3A%2F%2Ffonts.googleapis.com%2Fcss%3Ffamily%3DArchitects%2BDaughter;fillColor=#ffe6cc;strokeColor=#d79b00;sketch=1;curveFitting=1;jiggle=2;" parent="1" vertex="1">
          <mxGeometry x="780" y="270" width="120" height="60" as="geometry" />
        </mxCell>
        <mxCell id="clFiod78sZzIFJFchtkz-24" value="" style="endArrow=classic;html=1;rounded=0;sketch=1;hachureGap=4;jiggle=2;curveFitting=1;fontFamily=Architects Daughter;fontSource=https%3A%2F%2Ffonts.googleapis.com%2Fcss%3Ffamily%3DArchitects%2BDaughter;" parent="1" source="clFiod78sZzIFJFchtkz-17" target="clFiod78sZzIFJFchtkz-23" edge="1">
          <mxGeometry width="50" height="50" relative="1" as="geometry">
            <mxPoint x="880" y="60" as="sourcePoint" />
            <mxPoint x="929" y="128" as="targetPoint" />
          </mxGeometry>
        </mxCell>
        <mxCell id="clFiod78sZzIFJFchtkz-25" value="currentQuestion with buzzer winner" style="rounded=0;whiteSpace=wrap;html=1;hachureGap=4;fontFamily=Architects Daughter;fontSource=https%3A%2F%2Ffonts.googleapis.com%2Fcss%3Ffamily%3DArchitects%2BDaughter;fillColor=#d5e8d4;strokeColor=#82b366;sketch=1;curveFitting=1;jiggle=2;" parent="1" vertex="1">
          <mxGeometry x="853.13" y="155" width="120" height="60" as="geometry" />
        </mxCell>
        <mxCell id="clFiod78sZzIFJFchtkz-26" value="Quiz master" style="shape=umlActor;verticalLabelPosition=bottom;verticalAlign=top;html=1;outlineConnect=0;sketch=1;hachureGap=4;jiggle=2;curveFitting=1;fontFamily=Architects Daughter;fontSource=https%3A%2F%2Ffonts.googleapis.com%2Fcss%3Ffamily%3DArchitects%2BDaughter;" parent="1" vertex="1">
          <mxGeometry x="275" y="-150" width="30" height="60" as="geometry" />
        </mxCell>
        <mxCell id="clFiod78sZzIFJFchtkz-28" value="Participants" style="shape=umlActor;verticalLabelPosition=bottom;verticalAlign=top;html=1;outlineConnect=0;sketch=1;hachureGap=4;jiggle=2;curveFitting=1;fontFamily=Architects Daughter;fontSource=https%3A%2F%2Ffonts.googleapis.com%2Fcss%3Ffamily%3DArchitects%2BDaughter;" parent="1" vertex="1">
          <mxGeometry x="475" y="-150" width="30" height="60" as="geometry" />
        </mxCell>
        <mxCell id="clFiod78sZzIFJFchtkz-29" value="Quiz master" style="shape=umlActor;verticalLabelPosition=bottom;verticalAlign=top;html=1;outlineConnect=0;sketch=1;hachureGap=4;jiggle=2;curveFitting=1;fontFamily=Architects Daughter;fontSource=https%3A%2F%2Ffonts.googleapis.com%2Fcss%3Ffamily%3DArchitects%2BDaughter;" parent="1" vertex="1">
          <mxGeometry x="1016.87" y="-150" width="30" height="60" as="geometry" />
        </mxCell>
        <mxCell id="clFiod78sZzIFJFchtkz-30" value="" style="verticalLabelPosition=bottom;verticalAlign=top;html=1;shadow=0;dashed=0;strokeWidth=1;shape=mxgraph.android.phone2;strokeColor=#030303;sketch=1;hachureGap=4;jiggle=2;curveFitting=1;fontFamily=Architects Daughter;fontSource=https%3A%2F%2Ffonts.googleapis.com%2Fcss%3Ffamily%3DArchitects%2BDaughter;" parent="1" vertex="1">
          <mxGeometry x="1001.87" y="-60" width="60" height="120" as="geometry" />
        </mxCell>
        <mxCell id="clFiod78sZzIFJFchtkz-31" value="" style="endArrow=classic;html=1;rounded=0;sketch=1;hachureGap=4;jiggle=2;curveFitting=1;fontFamily=Architects Daughter;fontSource=https%3A%2F%2Ffonts.googleapis.com%2Fcss%3Ffamily%3DArchitects%2BDaughter;" parent="1" source="clFiod78sZzIFJFchtkz-25" target="9OypTPoKY1CMVtVpkyk9-2" edge="1">
          <mxGeometry width="50" height="50" relative="1" as="geometry">
            <mxPoint x="863.13" y="70" as="sourcePoint" />
            <mxPoint x="891.13" y="-20" as="targetPoint" />
          </mxGeometry>
        </mxCell>
        <mxCell id="clFiod78sZzIFJFchtkz-32" value="" style="endArrow=classic;html=1;rounded=0;sketch=1;hachureGap=4;jiggle=2;curveFitting=1;fontFamily=Architects Daughter;fontSource=https%3A%2F%2Ffonts.googleapis.com%2Fcss%3Ffamily%3DArchitects%2BDaughter;" parent="1" target="clFiod78sZzIFJFchtkz-25" edge="1">
          <mxGeometry width="50" height="50" relative="1" as="geometry">
            <mxPoint x="840.005" y="270" as="sourcePoint" />
            <mxPoint x="968.13" y="66" as="targetPoint" />
          </mxGeometry>
        </mxCell>
        <mxCell id="clFiod78sZzIFJFchtkz-33" value="AcceptBuzzer&lt;div&gt;Answer&lt;/div&gt;" style="rounded=0;whiteSpace=wrap;html=1;hachureGap=4;fontFamily=Architects Daughter;fontSource=https%3A%2F%2Ffonts.googleapis.com%2Fcss%3Ffamily%3DArchitects%2BDaughter;fillColor=#dae8fc;strokeColor=#6c8ebf;sketch=1;curveFitting=1;jiggle=2;" parent="1" vertex="1">
          <mxGeometry x="990" y="155" width="120" height="60" as="geometry" />
        </mxCell>
        <mxCell id="clFiod78sZzIFJFchtkz-34" value="" style="endArrow=classic;html=1;rounded=0;sketch=1;hachureGap=4;jiggle=2;curveFitting=1;fontFamily=Architects Daughter;fontSource=https%3A%2F%2Ffonts.googleapis.com%2Fcss%3Ffamily%3DArchitects%2BDaughter;" parent="1" source="clFiod78sZzIFJFchtkz-30" target="clFiod78sZzIFJFchtkz-33" edge="1">
          <mxGeometry width="50" height="50" relative="1" as="geometry">
            <mxPoint x="1103.13" y="-8" as="sourcePoint" />
            <mxPoint x="1152.13" y="60" as="targetPoint" />
          </mxGeometry>
        </mxCell>
        <mxCell id="clFiod78sZzIFJFchtkz-36" value="QuestionAnswered" style="rounded=0;whiteSpace=wrap;html=1;hachureGap=4;fontFamily=Architects Daughter;fontSource=https%3A%2F%2Ffonts.googleapis.com%2Fcss%3Ffamily%3DArchitects%2BDaughter;fillColor=#ffe6cc;strokeColor=#d79b00;sketch=1;curveFitting=1;jiggle=2;" parent="1" vertex="1">
          <mxGeometry x="1020" y="270" width="120" height="60" as="geometry" />
        </mxCell>
        <mxCell id="clFiod78sZzIFJFchtkz-38" value="QuestionScored" style="rounded=0;whiteSpace=wrap;html=1;hachureGap=4;fontFamily=Architects Daughter;fontSource=https%3A%2F%2Ffonts.googleapis.com%2Fcss%3Ffamily%3DArchitects%2BDaughter;fillColor=#ffe6cc;strokeColor=#d79b00;sketch=1;curveFitting=1;jiggle=2;" parent="1" vertex="1">
          <mxGeometry x="1150" y="270" width="120" height="60" as="geometry" />
        </mxCell>
        <mxCell id="clFiod78sZzIFJFchtkz-39" value="scoreboard" style="rounded=0;whiteSpace=wrap;html=1;hachureGap=4;fontFamily=Architects Daughter;fontSource=https%3A%2F%2Ffonts.googleapis.com%2Fcss%3Ffamily%3DArchitects%2BDaughter;fillColor=#d5e8d4;strokeColor=#82b366;sketch=1;curveFitting=1;jiggle=2;" parent="1" vertex="1">
          <mxGeometry x="1170" y="155" width="120" height="60" as="geometry" />
        </mxCell>
        <mxCell id="clFiod78sZzIFJFchtkz-40" value="" style="verticalLabelPosition=bottom;verticalAlign=top;html=1;shadow=0;dashed=0;strokeWidth=1;shape=mxgraph.android.phone2;strokeColor=#030303;sketch=1;hachureGap=4;jiggle=2;curveFitting=1;fontFamily=Architects Daughter;fontSource=https%3A%2F%2Ffonts.googleapis.com%2Fcss%3Ffamily%3DArchitects%2BDaughter;" parent="1" vertex="1">
          <mxGeometry x="1200" y="-60" width="60" height="120" as="geometry" />
        </mxCell>
        <mxCell id="clFiod78sZzIFJFchtkz-41" value="Participants" style="shape=umlActor;verticalLabelPosition=bottom;verticalAlign=top;html=1;outlineConnect=0;sketch=1;hachureGap=4;jiggle=2;curveFitting=1;fontFamily=Architects Daughter;fontSource=https%3A%2F%2Ffonts.googleapis.com%2Fcss%3Ffamily%3DArchitects%2BDaughter;" parent="1" vertex="1">
          <mxGeometry x="1215" y="-150" width="30" height="60" as="geometry" />
        </mxCell>
        <mxCell id="clFiod78sZzIFJFchtkz-42" value="" style="endArrow=classic;html=1;rounded=0;sketch=1;hachureGap=4;jiggle=2;curveFitting=1;fontFamily=Architects Daughter;fontSource=https%3A%2F%2Ffonts.googleapis.com%2Fcss%3Ffamily%3DArchitects%2BDaughter;" parent="1" source="clFiod78sZzIFJFchtkz-33" target="clFiod78sZzIFJFchtkz-36" edge="1">
          <mxGeometry width="50" height="50" relative="1" as="geometry">
            <mxPoint x="1153.13" y="116" as="sourcePoint" />
            <mxPoint x="1182.13" y="170" as="targetPoint" />
          </mxGeometry>
        </mxCell>
        <mxCell id="clFiod78sZzIFJFchtkz-44" value="" style="endArrow=classic;html=1;rounded=0;sketch=1;hachureGap=4;jiggle=2;curveFitting=1;fontFamily=Architects Daughter;fontSource=https%3A%2F%2Ffonts.googleapis.com%2Fcss%3Ffamily%3DArchitects%2BDaughter;" parent="1" source="clFiod78sZzIFJFchtkz-33" target="clFiod78sZzIFJFchtkz-38" edge="1">
          <mxGeometry width="50" height="50" relative="1" as="geometry">
            <mxPoint x="1173.13" y="136" as="sourcePoint" />
            <mxPoint x="1202.13" y="190" as="targetPoint" />
          </mxGeometry>
        </mxCell>
        <mxCell id="clFiod78sZzIFJFchtkz-45" value="" style="endArrow=classic;html=1;rounded=0;sketch=1;hachureGap=4;jiggle=2;curveFitting=1;fontFamily=Architects Daughter;fontSource=https%3A%2F%2Ffonts.googleapis.com%2Fcss%3Ffamily%3DArchitects%2BDaughter;" parent="1" source="clFiod78sZzIFJFchtkz-36" target="clFiod78sZzIFJFchtkz-39" edge="1">
          <mxGeometry width="50" height="50" relative="1" as="geometry">
            <mxPoint x="1122.13" y="180" as="sourcePoint" />
            <mxPoint x="1284.13" y="280" as="targetPoint" />
          </mxGeometry>
        </mxCell>
        <mxCell id="clFiod78sZzIFJFchtkz-47" value="" style="endArrow=classic;html=1;rounded=0;sketch=1;hachureGap=4;jiggle=2;curveFitting=1;fontFamily=Architects Daughter;fontSource=https%3A%2F%2Ffonts.googleapis.com%2Fcss%3Ffamily%3DArchitects%2BDaughter;" parent="1" source="clFiod78sZzIFJFchtkz-38" target="clFiod78sZzIFJFchtkz-39" edge="1">
          <mxGeometry width="50" height="50" relative="1" as="geometry">
            <mxPoint x="1147.13" y="280" as="sourcePoint" />
            <mxPoint x="1229.13" y="180" as="targetPoint" />
          </mxGeometry>
        </mxCell>
        <mxCell id="clFiod78sZzIFJFchtkz-48" value="" style="endArrow=classic;html=1;rounded=0;sketch=1;hachureGap=4;jiggle=2;curveFitting=1;fontFamily=Architects Daughter;fontSource=https%3A%2F%2Ffonts.googleapis.com%2Fcss%3Ffamily%3DArchitects%2BDaughter;" parent="1" source="clFiod78sZzIFJFchtkz-39" target="clFiod78sZzIFJFchtkz-40" edge="1">
          <mxGeometry width="50" height="50" relative="1" as="geometry">
            <mxPoint x="1240" y="280" as="sourcePoint" />
            <mxPoint x="1240" y="180" as="targetPoint" />
          </mxGeometry>
        </mxCell>
        <mxCell id="clFiod78sZzIFJFchtkz-50" value="" style="endArrow=classic;html=1;rounded=0;hachureGap=4;fontFamily=Architects Daughter;fontSource=https%3A%2F%2Ffonts.googleapis.com%2Fcss%3Ffamily%3DArchitects%2BDaughter;strokeColor=#000000;dashed=1;" parent="1" edge="1">
          <mxGeometry width="50" height="50" relative="1" as="geometry">
            <mxPoint x="230" y="110" as="sourcePoint" />
            <mxPoint x="1310" y="110" as="targetPoint" />
          </mxGeometry>
        </mxCell>
        <mxCell id="clFiod78sZzIFJFchtkz-51" value="Timeline" style="text;html=1;align=center;verticalAlign=middle;whiteSpace=wrap;rounded=0;fontFamily=Architects Daughter;fontSource=https%3A%2F%2Ffonts.googleapis.com%2Fcss%3Ffamily%3DArchitects%2BDaughter;" parent="1" vertex="1">
          <mxGeometry x="1242" y="88" width="60" height="30" as="geometry" />
        </mxCell>
        <mxCell id="clFiod78sZzIFJFchtkz-52" value="Timeline" style="text;html=1;align=center;verticalAlign=middle;whiteSpace=wrap;rounded=0;fontFamily=Architects Daughter;fontSource=https%3A%2F%2Ffonts.googleapis.com%2Fcss%3Ffamily%3DArchitects%2BDaughter;" parent="1" vertex="1">
          <mxGeometry x="220" y="88" width="60" height="30" as="geometry" />
        </mxCell>
        <mxCell id="9OypTPoKY1CMVtVpkyk9-1" value="Participant" style="shape=umlActor;verticalLabelPosition=bottom;verticalAlign=top;html=1;outlineConnect=0;sketch=1;hachureGap=4;jiggle=2;curveFitting=1;fontFamily=Architects Daughter;fontSource=https%3A%2F%2Ffonts.googleapis.com%2Fcss%3Ffamily%3DArchitects%2BDaughter;" vertex="1" parent="1">
          <mxGeometry x="925" y="-150" width="30" height="60" as="geometry" />
        </mxCell>
        <mxCell id="9OypTPoKY1CMVtVpkyk9-2" value="" style="verticalLabelPosition=bottom;verticalAlign=top;html=1;shadow=0;dashed=0;strokeWidth=1;shape=mxgraph.android.phone2;strokeColor=#030303;sketch=1;hachureGap=4;jiggle=2;curveFitting=1;fontFamily=Architects Daughter;fontSource=https%3A%2F%2Ffonts.googleapis.com%2Fcss%3Ffamily%3DArchitects%2BDaughter;" vertex="1" parent="1">
          <mxGeometry x="910" y="-60" width="60" height="120" as="geometry" />
        </mxCell>
        <mxCell id="9OypTPoKY1CMVtVpkyk9-3" value="Answers&lt;div&gt;question&lt;/div&gt;" style="text;html=1;align=center;verticalAlign=middle;resizable=0;points=[];autosize=1;strokeColor=none;fillColor=none;fontFamily=Architects Daughter;fontSource=https%3A%2F%2Ffonts.googleapis.com%2Fcss%3Ffamily%3DArchitects%2BDaughter;" vertex="1" parent="1">
          <mxGeometry x="905" y="-17" width="70" height="40" as="geometry" />
        </mxCell>
        <mxCell id="9OypTPoKY1CMVtVpkyk9-4" value="Evaluates&lt;div&gt;answer&lt;/div&gt;" style="text;html=1;align=center;verticalAlign=middle;resizable=0;points=[];autosize=1;strokeColor=none;fillColor=none;fontFamily=Architects Daughter;fontSource=https%3A%2F%2Ffonts.googleapis.com%2Fcss%3Ffamily%3DArchitects%2BDaughter;" vertex="1" parent="1">
          <mxGeometry x="996.87" y="-17" width="70" height="40" as="geometry" />
        </mxCell>
      </root>
    </mxGraphModel>
  </diagram>
</mxfile>
